<svg xmlns="http://www.w3.org/2000/svg" width="18.736" height="18.785" viewBox="0 0 18.736 18.785">
  <g id="checkmark-circle-6" transform="translate(-87.537 -85.334)">
    <path id="Path_178757" data-name="Path 178757" d="M342.769,262.334a.943.943,0,0,0-1.334,1.334l2.818,2.818a.911.911,0,0,0,1.343-.047l6.575-7.514a.939.939,0,0,0-1.409-1.24l-5.842,6.763Z" transform="translate(-248.039 -168.275)" fill="#de5a38"/>
    <path id="Path_178758" data-name="Path 178758" d="M105.334,93.787a.939.939,0,0,0-.939.939,7.511,7.511,0,1,1-7.514-7.514,8.256,8.256,0,0,1,1.785.207.939.939,0,1,0,.441-1.822,9.9,9.9,0,0,0-2.226-.263,9.392,9.392,0,1,0,9.392,9.392A.939.939,0,0,0,105.334,93.787Z" transform="translate(0)" fill="#de5a38"/>
  </g>
</svg>
