<svg id="Layer_2" data-name="Layer 2" xmlns="http://www.w3.org/2000/svg" width="18.002" height="18.097" viewBox="0 0 18.002 18.097">
  <g id="Layer_1" data-name="Layer 1" transform="translate(0)">
    <g id="Download">
      <path id="_6" data-name="6" d="M8.651,18.1H2.15A2.15,2.15,0,0,1,0,15.947V2.15A2.15,2.15,0,0,1,2.15,0H12.1a2.15,2.15,0,0,1,2.15,2.15V7.309a.486.486,0,1,1-.967,0V2.15A1.165,1.165,0,0,0,12.116.985H2.15A1.165,1.165,0,0,0,.972,2.15V15.96A1.165,1.165,0,0,0,2.15,17.125h6.5a.486.486,0,1,1,0,.972Z" transform="translate(0)" fill="#404040"/>
      <path id="_5" data-name="5" d="M14.514,10.795H6.345a.486.486,0,1,1,0-.967h8.169a.486.486,0,0,1,0,.967Z" transform="translate(-3.314 -5.601)" fill="#404040"/>
      <path id="_4" data-name="4" d="M10.929,19.572H6.436a.486.486,0,0,1,0-.972h4.493a.486.486,0,1,1,0,.972Z" transform="translate(-3.392 -10.603)" fill="#404040"/>
      <path id="_3" data-name="3" d="M30.912,38.521H24.033a.507.507,0,0,1-.5-.5V36.333a.5.5,0,1,1,1.006,0v1.178h5.873V36.393a.5.5,0,0,1,1.006,0v1.621a.507.507,0,0,1-.5.507Z" transform="translate(-13.413 -20.425)" fill="#ff4d15"/>
      <path id="_2" data-name="2" d="M29.2,32.3a.494.494,0,0,1-.348-.142L26.792,30.2a.5.5,0,1,1,.692-.731l1.72,1.634,1.806-1.72a.5.5,0,1,1,.688.731l-2.15,2.038A.507.507,0,0,1,29.2,32.3Z" transform="translate(-15.183 -16.66)" fill="#ff4d15"/>
      <path id="_1" data-name="1" d="M32.053,27.335a.5.5,0,0,1-.5-.5V21.423a.5.5,0,1,1,1.006,0v5.409A.5.5,0,0,1,32.053,27.335Z" transform="translate(-17.985 -11.925)" fill="#ff4d15"/>
    </g>
  </g>
</svg>
