<svg id="edit_black_24dp_3_" data-name="edit_black_24dp (3)" xmlns="http://www.w3.org/2000/svg" width="17.139" height="18.882" viewBox="0 0 17.139 18.882">
  <path id="Path_153914" data-name="Path 153914" d="M0,0H17.139V18.882H0Z" fill="none"/>
  <path id="Path_153915" data-name="Path 153915" d="M10.9,7.736l.657.724-6.47,7.128H4.428v-.724L10.9,7.736M13.469,3a.683.683,0,0,0-.5.228l-1.307,1.44,2.678,2.95,1.307-1.44a.841.841,0,0,0,0-1.109L13.976,3.228A.669.669,0,0,0,13.469,3ZM10.9,5.51,3,14.211v2.95H5.678l7.9-8.7L10.9,5.51Z" transform="translate(-0.858 -0.64)" fill="#717171"/>
</svg>
