<svg xmlns="http://www.w3.org/2000/svg" width="158.323" height="84.179" viewBox="0 0 158.323 84.179">
  <g id="EmptyState_3_" data-name="EmptyState (3)" transform="translate(-28.2 -32.25)">
    <path id="Path_31" data-name="Path 31" d="M71.81,105.363H150.5a6.636,6.636,0,1,0,0-13.273s-5.688-2.971-5.688-6.636,3.746-6.636,8.368-6.636h9.645a6.636,6.636,0,0,0,0-13.273H141.966a6.636,6.636,0,1,0,0-13.273h37.922a6.636,6.636,0,0,0,0-13.273H86.979a6.636,6.636,0,1,0,0,13.273H49.057a6.636,6.636,0,0,0,0,13.273h23.7a6.636,6.636,0,0,1,0,13.273H34.836a6.636,6.636,0,0,0,0,13.273H71.81a6.636,6.636,0,1,0,0,13.273ZM173.251,72.182a6.636,6.636,0,1,0,6.636-6.636A6.636,6.636,0,0,0,173.251,72.182Z" transform="translate(0 3.48)" fill="#de5236" fill-rule="evenodd" opacity="0.1"/>
    <path id="Path_32" data-name="Path 32" d="M81.006,67.984a11.377,11.377,0,1,0,22.528,0H131.14V93.291a2.844,2.844,0,0,1-2.844,2.844H56.244A2.844,2.844,0,0,1,53.4,93.291V67.984Z" transform="translate(14.618 20.293)" fill="#fff" fill-rule="evenodd"/>
    <path id="Path_33" data-name="Path 33" d="M104.594,78.589a12.325,12.325,0,1,1-24.649,0q0-.331.017-.657H53.4l9.064-26.8A2.844,2.844,0,0,1,65.158,49.2h54.224a2.844,2.844,0,0,1,2.694,1.933l9.064,26.8H104.577Q104.594,78.259,104.594,78.589Z" transform="translate(14.618 9.397)" fill="#fff" fill-rule="evenodd"/>
    <path id="Path_34" data-name="Path 34" d="M100.514,76.405c0,5.26-5.566,11.377-11.377,11.377S77.761,81.665,77.761,76.405c0-.17.005-1.288.015-1.456L58.8,74.906l7.737-18.812a2.421,2.421,0,0,1,2.3-1.494h40.6a2.421,2.421,0,0,1,2.3,1.494l7.737,18.812-18.976.043C100.509,75.117,100.514,76.235,100.514,76.405Z" transform="translate(17.75 12.53)" fill="#de5236" fill-rule="evenodd" opacity="0.09"/>
    <path id="Path_35" data-name="Path 35" d="M62.715,52.366a3.555,3.555,0,0,1,3.368-2.416h51.5a3.555,3.555,0,0,1,3.368,2.416l8.566,25.326v23.216a3.555,3.555,0,0,1-3.555,3.555H57.705a3.555,3.555,0,0,1-3.555-3.555V77.692Z" transform="translate(15.053 9.832)" fill="none" stroke="#de5236" stroke-linejoin="round" stroke-width="1.5"/>
    <path id="Path_36" data-name="Path 36" d="M65.545,66.385H66.73A1.185,1.185,0,0,0,65.545,65.2Zm0,3.95V71.52a1.185,1.185,0,0,0,1.185-1.185Zm39.113,0V69.15a1.185,1.185,0,0,0-1.185,1.178Zm-3.472-2.241,1.032.583h0Zm-.478,2.114-1.185.009h0Zm-19.326,0L80.2,70.2h0ZM80.9,68.094l-1.032.583ZM65.545,66.385V65.2a1.185,1.185,0,0,0-1.185,1.185Zm0,3.95H64.36a1.185,1.185,0,0,0,1.185,1.185Zm11.887,0,1.185-.007a1.185,1.185,0,0,0-1.185-1.178ZM58.5,65.2a3.16,3.16,0,0,0-3.16,3.16h2.37a.79.79,0,0,1,.79-.79Zm2.3,0H58.5v2.37h2.3Zm3.16,3.16A3.16,3.16,0,0,0,60.8,65.2v2.37a.79.79,0,0,1,.79.79ZM60.8,71.52a3.16,3.16,0,0,0,3.16-3.16h-2.37a.79.79,0,0,1-.79.79Zm-2.3,0h2.3V69.15H58.5Zm-3.16-3.16a3.16,3.16,0,0,0,3.16,3.16V69.15a.79.79,0,0,1-.79-.79Zm10.2-3.16a3.16,3.16,0,0,0-3.16,3.16h2.37a.79.79,0,0,1,.79-.79Zm1.185,3.16V66.385H64.36V68.36Zm0,1.975V68.36H64.36v1.975ZM62.385,68.36a3.16,3.16,0,0,0,3.16,3.16V69.15a.79.79,0,0,1-.79-.79Zm42.273,3.16h23.458V69.15H104.658Zm23.458,0a3.16,3.16,0,0,0,3.16-3.16h-2.37a.79.79,0,0,1-.79.79Zm3.16-3.16a3.16,3.16,0,0,0-3.16-3.16v2.37a.79.79,0,0,1,.79.79Zm-3.16-3.16H104.462v2.37h23.654Zm-23.654,0a4.734,4.734,0,0,0-4.307,2.311l2.063,1.166a2.38,2.38,0,0,1,2.244-1.107Zm-4.307,2.311a5.424,5.424,0,0,0-.632,2.706l2.37-.018a3.087,3.087,0,0,1,.325-1.522Zm-.632,2.706c0,.02,0,.031,0,.039h2.37c0-.019,0-.041,0-.058Zm0,.039a8.35,8.35,0,0,1-8.478,8.216v2.37a10.72,10.72,0,0,0,10.848-10.587Zm-8.478,8.216a8.35,8.35,0,0,1-8.478-8.216H80.2A10.72,10.72,0,0,0,91.045,80.843Zm-8.478-8.216c0-.008,0-.02,0-.04L80.2,70.2c0,.017,0,.038,0,.058Zm0-.04a5.425,5.425,0,0,0-.632-2.706l-2.063,1.166A3.087,3.087,0,0,1,80.2,70.2Zm-.632-2.706A4.734,4.734,0,0,0,77.628,65.2v2.37a2.38,2.38,0,0,1,2.244,1.107ZM77.628,65.2H77.59v2.37h.038Zm-.038,0h-.038v2.37h.038Zm-.038,0h-.038v2.37h.038Zm-.038,0h-.038v2.37h.038Zm-.038,0h-.038v2.37h.038Zm-.038,0H77.4v2.37h.038Zm-.038,0h-.038v2.37H77.4Zm-.038,0h-.038v2.37h.038Zm-.038,0h-.038v2.37h.038Zm-.038,0h-.038v2.37h.038Zm-.038,0h-.038v2.37h.038Zm-.038,0h-.038v2.37h.038Zm-.038,0h-.038v2.37h.038Zm-.038,0H77.1v2.37h.038Zm-.038,0H77.06v2.37H77.1Zm-.038,0h-.038v2.37h.038Zm-.038,0h-.038v2.37h.038Zm-.038,0h-.038v2.37h.038Zm-.038,0H76.91v2.37h.038Zm-.038,0h-.037v2.37h.037Zm-.037,0h-.038v2.37h.038Zm-.038,0H76.8v2.37h.037Zm-.037,0h-.038v2.37H76.8Zm-.038,0h-.037v2.37h.037Zm-.037,0h-.037v2.37h.037Zm-.037,0h-.037v2.37h.037Zm-.037,0H76.61v2.37h.037Zm-.037,0h-.037v2.37h.037Zm-.037,0h-.037v2.37h.037Zm-.037,0H76.5v2.37h.037Zm-.037,0h-.037v2.37H76.5Zm-.037,0h-.037v2.37h.037Zm-.037,0h-.037v2.37h.037Zm-.037,0h-.037v2.37h.037Zm-.037,0h-.037v2.37h.037Zm-.037,0h-.037v2.37h.037Zm-.037,0h-.037v2.37h.037Zm-.037,0H76.2v2.37h.037Zm-.037,0h-.037v2.37H76.2Zm-.037,0h-.037v2.37h.037Zm-.037,0h-.037v2.37h.037Zm-.037,0h-.037v2.37h.037Zm-.037,0h-.037v2.37h.037Zm-.037,0h-.037v2.37h.037Zm-.037,0h-.037v2.37h.037Zm-.037,0H75.9v2.37h.037Zm-.037,0h-.037v2.37H75.9Zm-.037,0h-.037v2.37h.037Zm-.037,0h-.037v2.37h.037Zm-.037,0h-.037v2.37h.037Zm-.037,0h-.037v2.37h.037Zm-.037,0h-.037v2.37h.037Zm-.037,0h-.037v2.37h.037Zm-.037,0h-.037v2.37h.037Zm-.037,0h-.036v2.37h.036Zm-.036,0h-.037v2.37h.037Zm-.037,0H75.5v2.37h.036Zm-.036,0h-.036v2.37H75.5Zm-.036,0h-.036v2.37h.036Zm-.036,0h-.036v2.37h.036Zm-.036,0h-.036v2.37h.036Zm-.036,0h-.036v2.37h.036Zm-.036,0h-.036v2.37h.036Zm-.036,0h-.036v2.37h.036Zm-.036,0H75.21v2.37h.036Zm-.036,0h-.036v2.37h.036Zm-.036,0h-.036v2.37h.036Zm-.036,0H75.1v2.37h.036Zm-.036,0h-.036v2.37H75.1Zm-.036,0H75.03v2.37h.036Zm-.036,0h-.036v2.37h.036Zm-.036,0h-.036v2.37h.036Zm-.036,0h-.036v2.37h.036Zm-.036,0h-.036v2.37h.036Zm-.036,0H74.85v2.37h.036Zm-.036,0h-.036v2.37h.036Zm-.036,0h-.036v2.37h.036Zm-.036,0h-.036v2.37h.036Zm-.036,0h-.036v2.37h.036Zm-.036,0h-.036v2.37h.036Zm-.036,0h-.036v2.37h.036Zm-.036,0H74.6v2.37h.036Zm-.036,0h-.036v2.37H74.6Zm-.036,0h-.036v2.37h.036Zm-.036,0h-.036v2.37h.036Zm-.036,0h-.036v2.37h.036Zm-.036,0h-.035v2.37h.035Zm-.035,0h-.035v2.37h.035Zm-.035,0h-.035v2.37h.035Zm-.035,0h-.035v2.37h.035Zm-.035,0h-.035v2.37h.035Zm-.035,0h-.035v2.37h.035Zm-.035,0H74.21v2.37h.035Zm-.035,0h-.035v2.37h.035Zm-.035,0H74.14v2.37h.035Zm-.035,0H74.1v2.37h.035Zm-.035,0H74.07v2.37H74.1Zm-.035,0h-.035v2.37h.035Zm-.035,0H74v2.37h.035ZM74,65.2h-.035v2.37H74Zm-.035,0H73.93v2.37h.035Zm-.035,0h-.035v2.37h.035Zm-.035,0H73.86v2.37h.035Zm-.035,0h-.035v2.37h.035Zm-.035,0h-.035v2.37h.035Zm-.035,0h-.035v2.37h.035Zm-.035,0h-.035v2.37h.035Zm-.035,0h-.035v2.37h.035Zm-.035,0h-.034v2.37h.034Zm-.034,0h-.035v2.37h.035Zm-.035,0h-.034v2.37h.034Zm-.034,0h-.034v2.37h.034Zm-.034,0h-.034v2.37h.034Zm-.034,0H73.48v2.37h.034Zm-.034,0h-.034v2.37h.034Zm-.034,0h-.034v2.37h.034Zm-.034,0h-.034v2.37h.034Zm-.034,0h-.034v2.37h.034Zm-.034,0h-.034v2.37h.034Zm-.034,0h-.034v2.37h.034Zm-.034,0h-.034v2.37h.034Zm-.034,0h-.034v2.37h.034Zm-.034,0h-.034v2.37h.034Zm-.034,0h-.034v2.37h.034Zm-.034,0h-.034v2.37h.034Zm-.034,0h-.034v2.37h.034Zm-.034,0h-.034v2.37h.034Zm-.034,0H73v2.37h.034ZM73,65.2H72.97v2.37H73Zm-.034,0h-.033v2.37h.033Zm-.033,0H72.9v2.37h.034Zm-.034,0H72.87v2.37H72.9Zm-.034,0h-.034v2.37h.034Zm-.034,0H72.8v2.37h.033Zm-.033,0h-.033v2.37H72.8Zm-.033,0h-.033v2.37h.033Zm-.033,0H72.7v2.37h.033Zm-.033,0H72.67v2.37H72.7Zm-.033,0h-.033v2.37h.033Zm-.033,0H72.6v2.37h.033Zm-.033,0H72.57v2.37H72.6Zm-.033,0h-.033v2.37h.033Zm-.033,0H72.5v2.37h.033Zm-.033,0h-.033v2.37H72.5Zm-.033,0h-.033v2.37h.033Zm-.033,0h-.033v2.37h.033Zm-.033,0h-.033v2.37h.033Zm-.033,0H72.34v2.37h.033Zm-.033,0h-.033v2.37h.033Zm-.033,0h-.033v2.37h.033Zm-.033,0h-.033v2.37h.033Zm-.033,0H72.21v2.37h.032Zm-.032,0h-.033v2.37h.033Zm-.033,0h-.032v2.37h.032Zm-.032,0h-.032v2.37h.032Zm-.032,0H72.08v2.37h.032Zm-.032,0h-.032v2.37h.032Zm-.032,0h-.032v2.37h.032Zm-.032,0h-.032v2.37h.032Zm-.032,0h-.032v2.37h.032Zm-.032,0H71.92v2.37h.032Zm-.032,0h-.032v2.37h.032Zm-.032,0h-.032v2.37h.032Zm-.032,0h-.032v2.37h.032Zm-.032,0h-.032v2.37h.032Zm-.032,0H71.76v2.37h.032Zm-.032,0h-.032v2.37h.032Zm-.032,0H71.7v2.37h.032Zm-.032,0h-.032v2.37H71.7Zm-.032,0h-.031v2.37h.031Zm-.031,0H71.6v2.37h.031Zm-.031,0h-.031v2.37H71.6Zm-.031,0H71.54v2.37h.031Zm-.031,0h-.031v2.37h.031Zm-.031,0h-.031v2.37h.031Zm-.031,0h-.031v2.37h.031Zm-.031,0h-.031v2.37h.031Zm-.031,0h-.031v2.37h.031Zm-.031,0h-.031v2.37h.031Zm-.031,0h-.031v2.37h.031Zm-.031,0h-.031v2.37h.031Zm-.031,0H71.26v2.37h.031Zm-.031,0h-.031v2.37h.031Zm-.031,0H71.2v2.37h.031Zm-.031,0h-.031v2.37H71.2Zm-.031,0h-.031v2.37h.031Zm-.031,0h-.03v2.37h.03Zm-.03,0h-.031v2.37h.031Zm-.031,0h-.03v2.37h.03Zm-.03,0h-.03v2.37h.03Zm-.03,0h-.03v2.37h.03Zm-.03,0h-.03v2.37h.03Zm-.03,0h-.03v2.37h.03Zm-.03,0h-.03v2.37h.03Zm-.03,0h-.03v2.37h.03Zm-.03,0h-.03v2.37h.03Zm-.03,0H70.8v2.37h.03Zm-.03,0h-.03v2.37h.03Zm-.03,0h-.03v2.37h.03Zm-.03,0h-.03v2.37h.03Zm-.03,0h-.03v2.37h.03Zm-.03,0h-.03v2.37h.03Zm-.03,0h-.03v2.37h.03Zm-.03,0H70.6v2.37h.03Zm-.03,0h-.029v2.37H70.6Zm-.029,0h-.029v2.37h.029Zm-.029,0h-.029v2.37h.029Zm-.029,0h-.029v2.37h.029Zm-.029,0H70.45v2.37h.029Zm-.029,0h-.029v2.37h.029Zm-.029,0h-.029v2.37h.029Zm-.029,0h-.029v2.37h.029Zm-.029,0h-.029v2.37h.029Zm-.029,0h-.029v2.37h.029Zm-.029,0h-.029v2.37h.029Zm-.029,0h-.029v2.37h.029Zm-.029,0h-.029v2.37h.029Zm-.029,0H70.19v2.37h.029Zm-.029,0h-.028v2.37h.028Zm-.028,0h-.029v2.37h.029Zm-.029,0H70.1v2.37h.028Zm-.028,0h-.028v2.37H70.1Zm-.028,0h-.028v2.37h.028Zm-.028,0H70.02v2.37h.028Zm-.028,0h-.028v2.37h.028Zm-.028,0h-.028v2.37h.028Zm-.028,0h-.028v2.37h.028Zm-.028,0h-.028v2.37h.028Zm-.028,0H69.88v2.37h.028Zm-.028,0h-.028v2.37h.028Zm-.028,0h-.028v2.37h.028Zm-.028,0H69.8v2.37h.028Zm-.028,0h-.028v2.37H69.8Zm-.028,0h-.027v2.37h.027Zm-.027,0h-.028v2.37h.028Zm-.028,0h-.027v2.37h.027Zm-.027,0H69.66v2.37h.027Zm-.027,0h-.027v2.37h.027Zm-.027,0h-.027v2.37h.027Zm-.027,0h-.027v2.37h.027Zm-.027,0h-.027v2.37h.027Zm-.027,0h-.027v2.37h.027Zm-.027,0H69.5v2.37h.027Zm-.027,0h-.027v2.37H69.5Zm-.027,0h-.027v2.37h.027Zm-.027,0h-.027v2.37h.027Zm-.027,0h-.027v2.37h.027Zm-.027,0h-.027v2.37h.027Zm-.027,0h-.027v2.37h.027Zm-.027,0h-.026v2.37h.026Zm-.026,0h-.026v2.37h.026Zm-.026,0h-.026v2.37h.026Zm-.026,0h-.026v2.37h.026Zm-.026,0h-.026v2.37h.026Zm-.026,0H69.18v2.37h.026Zm-.026,0h-.026v2.37h.026Zm-.026,0h-.026v2.37h.026Zm-.026,0H69.1v2.37h.026Zm-.026,0h-.026v2.37H69.1Zm-.026,0h-.026v2.37h.026Zm-.026,0h-.026v2.37h.026Zm-.026,0H69v2.37h.025ZM69,65.2h-.025v2.37H69Zm-.025,0H68.95v2.37h.025Zm-.025,0h-.025v2.37h.025Zm-.025,0H68.9v2.37h.025Zm-.025,0h-.025v2.37H68.9Zm-.025,0h-.025v2.37h.025Zm-.025,0h-.025v2.37h.025Zm-.025,0H68.8v2.37h.025Zm-.025,0h-.025v2.37H68.8Zm-.025,0H68.75v2.37h.025Zm-.025,0h-.025v2.37h.025Zm-.025,0H68.7v2.37h.024Zm-.024,0h-.024v2.37H68.7Zm-.024,0h-.024v2.37h.024Zm-.024,0h-.024v2.37h.024Zm-.024,0H68.6v2.37h.024Zm-.024,0h-.024v2.37H68.6Zm-.024,0h-.024v2.37h.024Zm-.024,0h-.024v2.37h.024Zm-.024,0h-.024v2.37h.024Zm-.024,0h-.024v2.37h.024Zm-.024,0h-.024v2.37h.024Zm-.024,0h-.024v2.37h.024Zm-.024,0h-.024v2.37h.024Zm-.024,0h-.024v2.37h.024Zm-.024,0h-.024v2.37h.024Zm-.024,0h-.023v2.37h.023Zm-.023,0h-.023v2.37h.023Zm-.023,0H68.3v2.37h.023Zm-.023,0h-.023v2.37H68.3Zm-.023,0h-.023v2.37h.023Zm-.023,0h-.023v2.37h.023Zm-.023,0H68.2v2.37h.023Zm-.023,0H68.18v2.37H68.2Zm-.023,0h-.023v2.37h.023Zm-.023,0h-.023v2.37h.023Zm-.023,0h-.023v2.37h.023Zm-.023,0H68.09v2.37h.022Zm-.022,0h-.022v2.37h.022Zm-.022,0h-.022v2.37h.022Zm-.022,0h-.022v2.37h.022Zm-.022,0H68v2.37h.022ZM68,65.2h-.022v2.37H68Zm-.022,0h-.022v2.37h.022Zm-.022,0h-.022v2.37h.022Zm-.022,0h-.022v2.37h.022Zm-.022,0h-.022v2.37h.022Zm-.022,0H67.87v2.37h.022Zm-.022,0h-.021v2.37h.021Zm-.021,0h-.021v2.37h.021Zm-.021,0h-.021v2.37h.021Zm-.021,0h-.021v2.37h.021Zm-.021,0h-.021v2.37h.021Zm-.021,0h-.021v2.37h.021Zm-.021,0h-.021v2.37h.021Zm-.021,0H67.7v2.37h.021Zm-.021,0h-.021v2.37H67.7Zm-.021,0h-.021v2.37h.021Zm-.021,0h-.021v2.37h.021Zm-.021,0h-.021v2.37h.021Zm-.021,0H67.6v2.37h.021Zm-.021,0h-.02v2.37h.02Zm-.02,0h-.02v2.37h.02Zm-.02,0h-.02v2.37h.02Zm-.02,0h-.02v2.37h.02Zm-.02,0H67.5v2.37h.02Zm-.02,0h-.02v2.37h.02Zm-.02,0h-.02v2.37h.02Zm-.02,0h-.02v2.37h.02Zm-.02,0h-.02v2.37h.02Zm-.02,0H67.4v2.37h.02Zm-.02,0h-.02v2.37h.02Zm-.02,0h-.019v2.37h.019Zm-.019,0h-.019v2.37h.019Zm-.019,0h-.019v2.37h.019Zm-.019,0H67.3v2.37h.019Zm-.019,0h-.019v2.37H67.3Zm-.019,0h-.019v2.37h.019Zm-.019,0h-.019v2.37h.019Zm-.019,0h-.019v2.37h.019Zm-.019,0h-.019v2.37h.019Zm-.019,0h-.019v2.37h.019Zm-.019,0h-.018v2.37h.018Zm-.018,0H67.15v2.37h.019Zm-.019,0h-.018v2.37h.018Zm-.018,0h-.018v2.37h.018Zm-.018,0h-.018v2.37h.018Zm-.018,0h-.018v2.37h.018Zm-.018,0h-.018v2.37h.018Zm-.018,0h-.018v2.37h.018Zm-.018,0h-.018v2.37h.018Zm-.018,0h-.018v2.37h.018Zm-.018,0h-.018v2.37h.018Zm-.018,0h-.017v2.37h.017Zm-.017,0h-.017v2.37h.017Zm-.017,0h-.017v2.37h.017Zm-.017,0h-.017v2.37h.017Zm-.017,0H66.9v2.37h.017Zm-.017,0h-.017v2.37H66.9Zm-.017,0h-.017v2.37h.017Zm-.017,0h-.017v2.37h.017Zm-.017,0h-.017v2.37h.017Zm-.017,0h-.017v2.37h.017Zm-.017,0H66.8v2.37h.017Zm-.017,0h-.016v2.37H66.8Zm-.016,0h-.016v2.37h.016Zm-.016,0h-.016v2.37h.016Zm-.016,0h-.016v2.37h.016Zm-.016,0H66.72v2.37h.016Zm-.016,0H66.7v2.37h.016Zm-.016,0h-.016v2.37H66.7Zm-.016,0h-.016v2.37h.016Zm-.016,0h-.016v2.37h.016Zm-.016,0h-.016v2.37h.016Zm-.016,0h-.015v2.37h.015Zm-.015,0h-.015v2.37h.015Zm-.015,0H66.6v2.37h.015Zm-.015,0H66.58v2.37H66.6Zm-.015,0h-.015v2.37h.015Zm-.015,0H66.55v2.37h.015Zm-.015,0h-.015v2.37h.015Zm-.015,0h-.015v2.37h.015Zm-.015,0h-.015v2.37h.015Zm-.015,0h-.014v2.37h.014Zm-.014,0h-.015v2.37h.015Zm-.015,0h-.014v2.37h.014Zm-.014,0h-.014v2.37h.014Zm-.014,0h-.014v2.37h.014Zm-.014,0h-.014v2.37h.014Zm-.014,0h-.014v2.37h.014Zm-.014,0h-.014v2.37h.014Zm-.014,0h-.014v2.37h.014Zm-.014,0h-.014v2.37h.014Zm-.014,0h-.013v2.37h.013Zm-.013,0h-.013v2.37h.013Zm-.013,0h-.013v2.37h.013Zm-.013,0h-.013v2.37h.013Zm-.013,0H66.3v2.37h.013Zm-.013,0h-.013v2.37H66.3Zm-.013,0h-.013v2.37h.013Zm-.013,0H66.26v2.37h.013Zm-.013,0h-.013v2.37h.013Zm-.013,0h-.012v2.37h.012Zm-.012,0h-.012v2.37h.012Zm-.012,0h-.012v2.37h.012Zm-.012,0H66.2v2.37h.012Zm-.012,0h-.012v2.37H66.2Zm-.012,0h-.012v2.37h.012Zm-.012,0h-.012v2.37h.012Zm-.012,0H66.15v2.37h.012Zm-.012,0h-.012v2.37h.012Zm-.012,0h-.012v2.37h.012Zm-.012,0h-.012v2.37h.012Zm-.012,0H66.1v2.37h.011Zm-.011,0h-.011v2.37H66.1Zm-.011,0h-.011v2.37h.011Zm-.011,0h-.011v2.37h.011Zm-.011,0H66.06v2.37h.011Zm-.011,0h-.011v2.37h.011Zm-.011,0h-.011v2.37h.011Zm-.011,0h-.011v2.37h.011Zm-.011,0h-.011v2.37h.011Zm-.011,0h-.01v2.37h.01Zm-.01,0H66v2.37h.01Zm-.01,0h-.01v2.37H66Zm-.01,0h-.01v2.37h.01Zm-.01,0h-.01v2.37h.01Zm-.01,0h-.01v2.37h.01Zm-.01,0h-.01v2.37h.01Zm-.01,0h-.01v2.37h.01Zm-.01,0h-.009v2.37h.009Zm-.009,0h-.009v2.37h.009Zm-.009,0h-.009v2.37h.009Zm-.009,0H65.9v2.37h.009Zm-.009,0H65.89v2.37H65.9Zm-.009,0h-.009v2.37h.009Zm-.009,0h-.009v2.37h.009Zm-.009,0h-.009v2.37h.009Zm-.009,0h-.009v2.37h.009Zm-.009,0h-.008v2.37h.008Zm-.008,0h-.009v2.37h.009Zm-.009,0H65.83v2.37h.008Zm-.008,0h-.008v2.37h.008Zm-.008,0h-.008v2.37h.008Zm-.008,0h-.008v2.37h.008Zm-.008,0H65.8v2.37h.008Zm-.008,0H65.79v2.37H65.8Zm-.008,0h-.008v2.37h.008Zm-.008,0h-.008v2.37h.008Zm-.008,0h-.007v2.37h.007Zm-.007,0h-.007v2.37h.007Zm-.007,0h-.007v2.37h.007Zm-.007,0h-.007v2.37h.007Zm-.007,0H65.74v2.37h.007Zm-.007,0h-.007v2.37h.007Zm-.007,0h-.007v2.37h.007Zm-.007,0H65.72v2.37h.006Zm-.006,0h-.006v2.37h.006Zm-.006,0h-.006v2.37h.006Zm-.006,0H65.7v2.37h.006Zm-.006,0h-.006v2.37H65.7Zm-.006,0h-.006v2.37h.006Zm-.006,0h-.006v2.37h.006Zm-.006,0h-.006v2.37h.006Zm-.006,0h-.006v2.37h.006Zm-.006,0h-.006v2.37h.006Zm-.006,0h-.005v2.37h.005Zm-.005,0h-.005v2.37h.005Zm-.005,0H65.65v2.37h.005Zm-.005,0h0v2.37h0Zm0,0h0v2.37h0Zm0,0h0v2.37h0Zm0,0h0v2.37h0Zm0,0h0v2.37h0Zm0,0h0v2.37h0Zm0,0h0v2.37h0Zm0,0h0v2.37h0Zm0,0h0v2.37h0Zm0,0h0v2.37h0Zm0,0h0v2.37h0Zm0,0h0v2.37h0Zm0,0h0v2.37h0Zm0,0h0v2.37h0Zm0,0h0v2.37h0Zm0,0h0v2.37h0Zm0,0h0v2.37h0Zm0,0h0v2.37h0Zm0,0h0v2.37h0Zm0,0h0v2.37h0Zm0,0h0v2.37h0Zm0,0h0v2.37h0Zm0,0h0v2.37h0Zm0,0h0v2.37h0Zm0,0h0v2.37h0Zm0,0h0v2.37h0Zm0,0h0v2.37h0Zm0,0h0v2.37h0Zm0,0h0v2.37h0Zm0,0h0v2.37h0Zm0,0h0v2.37h0Zm0,0h0v2.37h0Zm0,0h0v2.37h0Zm0,0h0v2.37h0Zm0,0h0v2.37h0Zm0,0h0v2.37h0Zm0,0h0v2.37h0Zm0,0h0v2.37h0Zm0,0h0v2.37h0Zm0,0h0v2.37h0ZM64.36,66.385V68.36h2.37V66.385Zm0,1.975v1.975h2.37V68.36Zm1.185,3.16h0V69.15h0Zm0,0h0V69.15h0Zm0,0h0V69.15h0Zm0,0h0V69.15h0Zm0,0h0V69.15h0Zm0,0h0V69.15h0Zm0,0h0V69.15h0Zm0,0h0V69.15h0Zm0,0h0V69.15h0Zm0,0h0V69.15h0Zm0,0h0V69.15h0Zm0,0h0V69.15h0Zm0,0h0V69.15h0Zm0,0h0V69.15h0Zm0,0h0V69.15h0Zm0,0h0V69.15h0Zm0,0h0V69.15h0Zm0,0h0V69.15h0Zm0,0h0V69.15h0Zm0,0h0V69.15h0Zm0,0h0V69.15h0Zm0,0h0V69.15h0Zm0,0h0V69.15h0Zm0,0h0V69.15h0Zm0,0h0V69.15h0Zm0,0h0V69.15h0Zm0,0h0V69.15h0Zm0,0h0V69.15h0Zm0,0h0V69.15h0Zm0,0h0V69.15h0Zm0,0h0V69.15h0Zm0,0h0V69.15h0Zm0,0h0V69.15h0Zm0,0h0V69.15h0Zm0,0h0V69.15h0Zm0,0h0V69.15h0Zm0,0h0V69.15h0Zm0,0h0V69.15h0Zm0,0h0V69.15h0Zm0,0h0V69.15h0Zm0,0h.005V69.15H65.65Zm.005,0h.005V69.15h-.005Zm.005,0h.005V69.15h-.005Zm.005,0h.006V69.15h-.006Zm.006,0h.006V69.15h-.006Zm.006,0h.006V69.15h-.006Zm.006,0h.006V69.15h-.006Zm.006,0h.006V69.15h-.006Zm.006,0H65.7V69.15h-.006Zm.006,0h.006V69.15H65.7Zm.006,0h.006V69.15h-.006Zm.006,0h.006V69.15h-.006Zm.006,0h.006V69.15H65.72Zm.006,0h.007V69.15h-.007Zm.007,0h.007V69.15h-.007Zm.007,0h.007V69.15H65.74Zm.007,0h.007V69.15h-.007Zm.007,0h.007V69.15h-.007Zm.007,0h.007V69.15h-.007Zm.007,0h.007V69.15h-.007Zm.007,0h.008V69.15h-.008Zm.008,0h.008V69.15h-.008Zm.008,0H65.8V69.15H65.79Zm.008,0h.008V69.15H65.8Zm.008,0h.008V69.15h-.008Zm.008,0h.008V69.15h-.008Zm.008,0h.008V69.15h-.008Zm.008,0h.008V69.15H65.83Zm.008,0h.009V69.15h-.009Zm.009,0h.008V69.15h-.008Zm.008,0h.009V69.15h-.009Zm.009,0h.009V69.15h-.009Zm.009,0h.009V69.15h-.009Zm.009,0h.009V69.15h-.009Zm.009,0H65.9V69.15H65.89Zm.009,0h.009V69.15H65.9Zm.009,0h.009V69.15h-.009Zm.009,0h.009V69.15h-.009Zm.009,0h.009V69.15h-.009Zm.009,0h.01V69.15h-.01Zm.01,0h.01V69.15h-.01Zm.01,0h.01V69.15h-.01Zm.01,0h.01V69.15h-.01Zm.01,0h.01V69.15h-.01Zm.01,0H66V69.15h-.01Zm.01,0h.01V69.15H66Zm.01,0h.01V69.15h-.01Zm.01,0h.011V69.15h-.011Zm.011,0h.011V69.15h-.011Zm.011,0h.011V69.15h-.011Zm.011,0h.011V69.15h-.011Zm.011,0h.011V69.15H66.06Zm.011,0h.011V69.15h-.011Zm.011,0h.011V69.15h-.011Zm.011,0H66.1V69.15h-.011Zm.011,0h.011V69.15H66.1Zm.011,0h.012V69.15h-.012Zm.012,0h.012V69.15h-.012Zm.012,0h.012V69.15h-.012Zm.012,0h.012V69.15H66.15Zm.012,0h.012V69.15h-.012Zm.012,0h.012V69.15h-.012Zm.012,0H66.2V69.15h-.012Zm.012,0h.012V69.15H66.2Zm.012,0h.012V69.15h-.012Zm.012,0h.012V69.15h-.012Zm.012,0h.012V69.15h-.012Zm.012,0h.013V69.15h-.013Zm.013,0h.013V69.15H66.26Zm.013,0h.013V69.15h-.013Zm.013,0H66.3V69.15h-.013Zm.013,0h.013V69.15H66.3Zm.013,0h.013V69.15h-.013Zm.013,0h.013V69.15h-.013Zm.013,0h.013V69.15h-.013Zm.013,0h.013V69.15h-.013Zm.013,0h.014V69.15h-.014Zm.014,0h.014V69.15h-.014Zm.014,0h.014V69.15h-.014Zm.014,0h.014V69.15h-.014Zm.014,0h.014V69.15h-.014Zm.014,0h.014V69.15h-.014Zm.014,0h.014V69.15h-.014Zm.014,0h.014V69.15h-.014Zm.014,0h.015V69.15h-.015Zm.015,0h.014V69.15h-.014Zm.014,0h.015V69.15h-.015Zm.015,0h.015V69.15h-.015Zm.015,0h.015V69.15h-.015Zm.015,0h.015V69.15H66.55Zm.015,0h.015V69.15h-.015Zm.015,0H66.6V69.15H66.58Zm.015,0h.015V69.15H66.6Zm.015,0h.015V69.15h-.015Zm.015,0h.015V69.15h-.015Zm.015,0h.016V69.15h-.016Zm.016,0h.016V69.15h-.016Zm.016,0h.016V69.15h-.016Zm.016,0H66.7V69.15h-.016Zm.016,0h.016V69.15H66.7Zm.016,0h.016V69.15H66.72Zm.016,0h.016V69.15h-.016Zm.016,0h.016V69.15h-.016Zm.016,0h.016V69.15h-.016Zm.016,0H66.8V69.15h-.016Zm.016,0h.017V69.15H66.8Zm.017,0h.017V69.15h-.017Zm.017,0h.017V69.15h-.017Zm.017,0h.017V69.15h-.017Zm.017,0h.017V69.15h-.017Zm.017,0H66.9V69.15h-.017Zm.017,0h.017V69.15H66.9Zm.017,0h.017V69.15h-.017Zm.017,0h.017V69.15h-.017Zm.017,0h.017V69.15h-.017Zm.017,0h.017V69.15h-.017Zm.017,0h.018V69.15h-.018Zm.018,0h.018V69.15h-.018Zm.018,0h.018V69.15h-.018Zm.018,0h.018V69.15h-.018Zm.018,0h.018V69.15h-.018Zm.018,0h.018V69.15h-.018Zm.018,0h.018V69.15h-.018Zm.018,0h.018V69.15h-.018Zm.018,0h.018V69.15h-.018Zm.018,0h.019V69.15H67.15Zm.019,0h.018V69.15h-.018Zm.018,0h.019V69.15h-.019Zm.019,0h.019V69.15h-.019Zm.019,0h.019V69.15h-.019Zm.019,0h.019V69.15h-.019Zm.019,0h.019V69.15h-.019Zm.019,0H67.3V69.15h-.019Zm.019,0h.019V69.15H67.3Zm.019,0h.019V69.15h-.019Zm.019,0h.019V69.15h-.019Zm.019,0h.019V69.15h-.019Zm.019,0h.02V69.15h-.02Zm.02,0h.02V69.15H67.4Zm.02,0h.02V69.15h-.02Zm.02,0h.02V69.15h-.02Zm.02,0h.02V69.15h-.02Zm.02,0h.02V69.15h-.02Zm.02,0h.02V69.15H67.5Zm.02,0h.02V69.15h-.02Zm.02,0h.02V69.15h-.02Zm.02,0h.02V69.15h-.02Zm.02,0h.02V69.15h-.02Zm.02,0h.021V69.15H67.6Zm.021,0h.021V69.15h-.021Zm.021,0h.021V69.15h-.021Zm.021,0h.021V69.15h-.021Zm.021,0H67.7V69.15h-.021Zm.021,0h.021V69.15H67.7Zm.021,0h.021V69.15h-.021Zm.021,0h.021V69.15h-.021Zm.021,0h.021V69.15h-.021Zm.021,0h.021V69.15h-.021Zm.021,0h.021V69.15h-.021Zm.021,0h.021V69.15h-.021Zm.021,0h.021V69.15h-.021Zm.021,0h.022V69.15H67.87Zm.022,0h.022V69.15h-.022Zm.022,0h.022V69.15h-.022Zm.022,0h.022V69.15h-.022Zm.022,0h.022V69.15h-.022Zm.022,0H68V69.15h-.022Zm.022,0h.022V69.15H68Zm.022,0h.022V69.15h-.022Zm.022,0h.022V69.15h-.022Zm.022,0h.022V69.15h-.022Zm.022,0h.022V69.15H68.09Zm.022,0h.023V69.15h-.023Zm.023,0h.023V69.15h-.023Zm.023,0h.023V69.15h-.023Zm.023,0H68.2V69.15H68.18Zm.023,0h.023V69.15H68.2Zm.023,0h.023V69.15h-.023Zm.023,0h.023V69.15h-.023Zm.023,0H68.3V69.15h-.023Zm.023,0h.023V69.15H68.3Zm.023,0h.023V69.15h-.023Zm.023,0h.023V69.15h-.023Zm.023,0h.024V69.15h-.024Zm.024,0h.024V69.15h-.024Zm.024,0h.024V69.15h-.024Zm.024,0h.024V69.15h-.024Zm.024,0h.024V69.15h-.024Zm.024,0h.024V69.15h-.024Zm.024,0h.024V69.15h-.024Zm.024,0h.024V69.15h-.024Zm.024,0h.024V69.15h-.024Zm.024,0H68.6V69.15h-.024Zm.024,0h.024V69.15H68.6Zm.024,0h.024V69.15h-.024Zm.024,0h.024V69.15h-.024Zm.024,0H68.7V69.15h-.024Zm.024,0h.024V69.15H68.7Zm.024,0h.025V69.15h-.025Zm.025,0h.025V69.15H68.75Zm.025,0H68.8V69.15h-.025Zm.025,0h.025V69.15H68.8Zm.025,0h.025V69.15h-.025Zm.025,0h.025V69.15h-.025Zm.025,0H68.9V69.15h-.025Zm.025,0h.025V69.15H68.9Zm.025,0h.025V69.15h-.025Zm.025,0h.025V69.15H68.95Zm.025,0H69V69.15h-.025Zm.025,0h.025V69.15H69Zm.025,0h.026V69.15h-.026Zm.026,0h.026V69.15h-.026Zm.026,0H69.1V69.15h-.026Zm.026,0h.026V69.15H69.1Zm.026,0h.026V69.15h-.026Zm.026,0h.026V69.15h-.026Zm.026,0h.026V69.15H69.18Zm.026,0h.026V69.15h-.026Zm.026,0h.026V69.15h-.026Zm.026,0h.026V69.15h-.026Zm.026,0h.026V69.15h-.026Zm.026,0h.026V69.15h-.026Zm.026,0h.027V69.15h-.027Zm.027,0h.027V69.15h-.027Zm.027,0h.027V69.15h-.027Zm.027,0h.027V69.15h-.027Zm.027,0h.027V69.15h-.027Zm.027,0H69.5V69.15h-.027Zm.027,0h.027V69.15H69.5Zm.027,0h.027V69.15h-.027Zm.027,0h.027V69.15h-.027Zm.027,0h.027V69.15h-.027Zm.027,0h.027V69.15h-.027Zm.027,0h.027V69.15h-.027Zm.027,0h.027V69.15H69.66Zm.027,0h.027V69.15h-.027Zm.027,0h.028V69.15h-.028Zm.028,0h.027V69.15h-.027Zm.027,0H69.8V69.15h-.028Zm.028,0h.028V69.15H69.8Zm.028,0h.028V69.15h-.028Zm.028,0h.028V69.15h-.028Zm.028,0h.028V69.15H69.88Zm.028,0h.028V69.15h-.028Zm.028,0h.028V69.15h-.028Zm.028,0h.028V69.15h-.028Zm.028,0h.028V69.15h-.028Zm.028,0h.028V69.15H70.02Zm.028,0h.028V69.15h-.028Zm.028,0H70.1V69.15h-.028Zm.028,0h.028V69.15H70.1Zm.028,0h.029V69.15h-.029Zm.029,0h.028V69.15h-.028Zm.028,0h.029V69.15H70.19Zm.029,0h.029V69.15h-.029Zm.029,0h.029V69.15h-.029Zm.029,0h.029V69.15h-.029Zm.029,0h.029V69.15h-.029Zm.029,0h.029V69.15h-.029Zm.029,0h.029V69.15h-.029Zm.029,0h.029V69.15h-.029Zm.029,0h.029V69.15h-.029Zm.029,0h.029V69.15H70.45Zm.029,0h.029V69.15h-.029Zm.029,0h.029V69.15h-.029Zm.029,0h.029V69.15h-.029Zm.029,0H70.6V69.15h-.029Zm.029,0h.03V69.15H70.6Zm.03,0h.03V69.15h-.03Zm.03,0h.03V69.15h-.03Zm.03,0h.03V69.15h-.03Zm.03,0h.03V69.15h-.03Zm.03,0h.03V69.15h-.03Zm.03,0h.03V69.15h-.03Zm.03,0h.03V69.15H70.8Zm.03,0h.03V69.15h-.03Zm.03,0h.03V69.15h-.03Zm.03,0h.03V69.15h-.03Zm.03,0h.03V69.15h-.03Zm.03,0h.03V69.15h-.03Zm.03,0h.03V69.15h-.03Zm.03,0h.03V69.15h-.03Zm.03,0h.03V69.15h-.03Zm.03,0h.031V69.15h-.031Zm.031,0h.03V69.15h-.03Zm.03,0h.031V69.15h-.031Zm.031,0H71.2V69.15h-.031Zm.031,0h.031V69.15H71.2Zm.031,0h.031V69.15h-.031Zm.031,0h.031V69.15H71.26Zm.031,0h.031V69.15h-.031Zm.031,0h.031V69.15h-.031Zm.031,0h.031V69.15h-.031Zm.031,0h.031V69.15h-.031Zm.031,0h.031V69.15h-.031Zm.031,0h.031V69.15h-.031Zm.031,0h.031V69.15h-.031Zm.031,0h.031V69.15h-.031Zm.031,0h.031V69.15H71.54Zm.031,0H71.6V69.15h-.031Zm.031,0h.031V69.15H71.6Zm.031,0h.031V69.15h-.031Zm.031,0H71.7V69.15h-.032Zm.032,0h.032V69.15H71.7Zm.032,0h.032V69.15h-.032Zm.032,0h.032V69.15H71.76Zm.032,0h.032V69.15h-.032Zm.032,0h.032V69.15h-.032Zm.032,0h.032V69.15h-.032Zm.032,0h.032V69.15h-.032Zm.032,0h.032V69.15H71.92Zm.032,0h.032V69.15h-.032Zm.032,0h.032V69.15h-.032Zm.032,0h.032V69.15h-.032Zm.032,0h.032V69.15h-.032Zm.032,0h.032V69.15H72.08Zm.032,0h.032V69.15h-.032Zm.032,0h.032V69.15h-.032Zm.032,0h.033V69.15h-.033Zm.033,0h.032V69.15H72.21Zm.032,0h.033V69.15h-.033Zm.033,0h.033V69.15h-.033Zm.033,0h.033V69.15h-.033Zm.033,0h.033V69.15H72.34Zm.033,0h.033V69.15h-.033Zm.033,0h.033V69.15h-.033Zm.033,0h.033V69.15h-.033Zm.033,0H72.5V69.15h-.033Zm.033,0h.033V69.15H72.5Zm.033,0h.033V69.15h-.033Zm.033,0H72.6V69.15H72.57Zm.033,0h.033V69.15H72.6Zm.033,0h.033V69.15h-.033Zm.033,0H72.7V69.15H72.67Zm.033,0h.033V69.15H72.7Zm.033,0h.033V69.15h-.033Zm.033,0H72.8V69.15h-.033Zm.033,0h.033V69.15H72.8Zm.033,0h.034V69.15h-.034Zm.034,0H72.9V69.15H72.87Zm.034,0h.034V69.15H72.9Zm.034,0h.033V69.15h-.033Zm.033,0H73V69.15H72.97Zm.034,0h.034V69.15H73Zm.034,0h.034V69.15h-.034Zm.034,0h.034V69.15h-.034Zm.034,0h.034V69.15h-.034Zm.034,0h.034V69.15h-.034Zm.034,0h.034V69.15h-.034Zm.034,0h.034V69.15h-.034Zm.034,0h.034V69.15h-.034Zm.034,0h.034V69.15h-.034Zm.034,0h.034V69.15h-.034Zm.034,0h.034V69.15h-.034Zm.034,0h.034V69.15h-.034Zm.034,0h.034V69.15h-.034Zm.034,0h.034V69.15h-.034Zm.034,0h.034V69.15H73.48Zm.034,0h.034V69.15h-.034Zm.034,0h.034V69.15h-.034Zm.034,0h.034V69.15h-.034Zm.034,0h.035V69.15h-.035Zm.035,0h.034V69.15h-.034Zm.034,0h.035V69.15h-.035Zm.035,0h.035V69.15h-.035Zm.035,0h.035V69.15h-.035Zm.035,0h.035V69.15h-.035Zm.035,0h.035V69.15h-.035Zm.035,0h.035V69.15H73.86Zm.035,0h.035V69.15h-.035Zm.035,0h.035V69.15H73.93Zm.035,0H74V69.15h-.035Zm.035,0h.035V69.15H74Zm.035,0h.035V69.15h-.035Zm.035,0H74.1V69.15H74.07Zm.035,0h.035V69.15H74.1Zm.035,0h.035V69.15H74.14Zm.035,0h.035V69.15h-.035Zm.035,0h.035V69.15H74.21Zm.035,0h.035V69.15h-.035Zm.035,0h.035V69.15h-.035Zm.035,0h.035V69.15h-.035Zm.035,0h.035V69.15h-.035Zm.035,0h.035V69.15h-.035Zm.035,0h.035V69.15h-.035Zm.035,0h.036V69.15h-.036Zm.036,0h.036V69.15h-.036Zm.036,0h.036V69.15h-.036Zm.036,0H74.6V69.15h-.036Zm.036,0h.036V69.15H74.6Zm.036,0h.036V69.15h-.036Zm.036,0h.036V69.15h-.036Zm.036,0h.036V69.15h-.036Zm.036,0h.036V69.15h-.036Zm.036,0h.036V69.15h-.036Zm.036,0h.036V69.15h-.036Zm.036,0h.036V69.15H74.85Zm.036,0h.036V69.15h-.036Zm.036,0h.036V69.15h-.036Zm.036,0h.036V69.15h-.036Zm.036,0h.036V69.15h-.036Zm.036,0h.036V69.15H75.03Zm.036,0H75.1V69.15h-.036Zm.036,0h.036V69.15H75.1Zm.036,0h.036V69.15h-.036Zm.036,0h.036V69.15h-.036Zm.036,0h.036V69.15H75.21Zm.036,0h.036V69.15h-.036Zm.036,0h.036V69.15h-.036Zm.036,0h.036V69.15h-.036Zm.036,0h.036V69.15h-.036Zm.036,0h.036V69.15h-.036Zm.036,0h.036V69.15h-.036Zm.036,0H75.5V69.15h-.036Zm.036,0h.036V69.15H75.5Zm.036,0h.037V69.15h-.037Zm.037,0h.036V69.15h-.036Zm.036,0h.037V69.15h-.037Zm.037,0h.037V69.15h-.037Zm.037,0h.037V69.15h-.037Zm.037,0h.037V69.15h-.037Zm.037,0h.037V69.15h-.037Zm.037,0h.037V69.15h-.037Zm.037,0h.037V69.15h-.037Zm.037,0H75.9V69.15h-.037Zm.037,0h.037V69.15H75.9Zm.037,0h.037V69.15h-.037Zm.037,0h.037V69.15h-.037Zm.037,0h.037V69.15h-.037Zm.037,0h.037V69.15h-.037Zm.037,0h.037V69.15h-.037Zm.037,0h.037V69.15h-.037Zm.037,0H76.2V69.15h-.037Zm.037,0h.037V69.15H76.2Zm.037,0h.037V69.15h-.037Zm.037,0h.037V69.15h-.037Zm.037,0h.037V69.15h-.037Zm.037,0h.037V69.15h-.037Zm.037,0h.037V69.15h-.037Zm.037,0h.037V69.15h-.037Zm.037,0H76.5V69.15h-.037Zm.037,0h.037V69.15H76.5Zm.037,0h.037V69.15h-.037Zm.037,0h.037V69.15h-.037Zm.037,0h.037V69.15H76.61Zm.037,0h.037V69.15h-.037Zm.037,0h.037V69.15h-.037Zm.037,0h.037V69.15h-.037Zm.037,0H76.8V69.15h-.038Zm.038,0h.037V69.15H76.8Zm.037,0h.038V69.15h-.038Zm.038,0h.037V69.15h-.037Zm.037,0h.038V69.15H76.91Zm.038,0h.038V69.15h-.038Zm.038,0h.038V69.15h-.038Zm.038,0h.038V69.15h-.038Zm.038,0H77.1V69.15H77.06Zm.038,0h.038V69.15H77.1Zm.038,0h.038V69.15h-.038Zm.038,0h.038V69.15h-.038Zm.038,0h.038V69.15h-.038Zm.038,0h.038V69.15h-.038Zm.038,0h.038V69.15h-.038Zm.038,0h.038V69.15h-.038Zm.038,0H77.4V69.15h-.038Zm.038,0h.032V69.15H77.4Zm-1.153-1.178a14.671,14.671,0,0,0,14.8,14.451v-2.37A12.3,12.3,0,0,1,78.617,70.328Zm14.8,14.451a14.671,14.671,0,0,0,14.8-14.451l-2.37-.014A12.3,12.3,0,0,1,91.045,82.423Z" transform="translate(15.746 18.679)" fill="#de5236"/>
    <path id="Path_37" data-name="Path 37" d="M77.46,33V48.885" transform="translate(28.575)" fill="none" stroke="#36b37e" stroke-linecap="round" stroke-linejoin="round" stroke-width="1.5"/>
    <path id="Path_38" data-name="Path 38" d="M61.8,35.582,72.323,47.388" transform="translate(19.491 1.498)" fill="none" stroke="#6554c0" stroke-linecap="round" stroke-linejoin="round" stroke-width="1.5"/>
    <path id="Path_39" data-name="Path 39" d="M96.923,35.582,86.4,47.388" transform="translate(33.761 1.498)" fill="none" stroke="#ffab00" stroke-linecap="round" stroke-linejoin="round" stroke-width="1.5"/>
  </g>
</svg>
