<svg xmlns="http://www.w3.org/2000/svg" width="30" height="30" viewBox="0 0 18 18">
  <g id="Group_77558" data-name="Group 77558" transform="translate(-18478 -22587)">
    <circle id="Ellipse_2473" data-name="Ellipse 2473" cx="9" cy="9" r="9" transform="translate(18478 22587)" fill="#fff"/>
    <path id="document" d="M8.983-.021A8.983,8.983,0,1,1,0,8.964,8.985,8.985,0,0,1,8.983-.021ZM11.211,7.42a.178.178,0,0,0-.178-.178h-4.1a.178.178,0,1,0,0,.356h4.1a.178.178,0,0,0,.178-.178Zm0,1.865a.178.178,0,0,0-.178-.178h-4.1a.178.178,0,1,0,0,.356h4.1a.178.178,0,0,0,.178-.178Zm0,1.865a.178.178,0,0,0-.178-.178h-4.1a.178.178,0,1,0,0,.356h4.1a.178.178,0,0,0,.178-.178Zm0,1.865a.178.178,0,0,0-.178-.178h-4.1a.178.178,0,1,0,0,.356h4.1a.178.178,0,0,0,.178-.178Zm1.616.914V6.923c0-.023,0-.046,0-.068H10.546A.959.959,0,0,1,9.588,5.9V5.733H6.934a.178.178,0,0,1,0-.356H9.588V3.624a.645.645,0,0,0-.1-.008H5.519A.379.379,0,0,0,5.14,4v9.934a.379.379,0,0,0,.379.379h6.929a.379.379,0,0,0,.379-.379ZM9.487,3.26H5.519A.736.736,0,0,0,4.784,4V13.93a.736.736,0,0,0,.735.735h6.929a.736.736,0,0,0,.735-.735V6.923a.926.926,0,0,0-.285-.681L10.16,3.537a.927.927,0,0,0-.673-.276Z" transform="translate(18478 22587.021)" fill="#de5a38" fill-rule="evenodd"/>
  </g>
</svg>
