<svg xmlns="http://www.w3.org/2000/svg" width="24" height="24" viewBox="0 0 24 24">
  <g id="Group_75980" data-name="Group 75980" transform="translate(-8300 -11451)" opacity="0.6">
    <path id="folder" d="M11.815,17.736a6.08,6.08,0,0,0,1.793,4.309H6.327a1.79,1.79,0,0,1-1.786-1.789V8.68A1.79,1.79,0,0,1,6.327,6.891H10.07a1.812,1.812,0,0,1,1.263.522l2.049,2.049a1.124,1.124,0,0,0,.782.324H20.8a1.791,1.791,0,0,1,1.789,1.789v2.278c-.058-.072-.116-.14-.178-.208a6.1,6.1,0,0,0-10.6,4.091Zm0-10.807,2.049,2.052a.448.448,0,0,0,.3.123h6.054V5.293a1.338,1.338,0,0,0-1.393-1.274H8.3A1.338,1.338,0,0,0,6.908,5.293v.915H10.07a2.507,2.507,0,0,1,1.745.72Zm2.827,15.117a5.4,5.4,0,1,1,7.946-7A5.4,5.4,0,0,1,14.642,22.045Zm6.942-4.569c-.232-.2-2.319-1.96-3.681-1.96s-3.445,1.759-3.678,1.96a.342.342,0,0,0,0,.519c.232.2,2.319,1.96,3.678,1.96s3.449-1.762,3.681-1.96a.344.344,0,0,0,0-.519Zm-6.6.26c.27.215.625.475,1,.724a2.034,2.034,0,0,1,0-1.448C15.608,17.261,15.253,17.521,14.983,17.736Zm4.835-.72a2.032,2.032,0,0,1,0,1.441c1.23-.847,1.232-.594,0-1.441Zm-3.281.72A1.366,1.366,0,1,0,17.9,16.37a1.366,1.366,0,0,0-1.366,1.366Z" transform="translate(8298.458 11449.981)"/>
    <g id="Group_70560" data-name="Group 70560" transform="translate(8300 11451)">
      <rect id="Rectangle_36417" data-name="Rectangle 36417" width="24" height="24" fill="none"/>
    </g>
  </g>
</svg>
