<svg xmlns="http://www.w3.org/2000/svg" width="36" height="24" viewBox="0 0 36 24">
  <g id="Group_76007" data-name="Group 76007" transform="translate(-239 -554)">
    <path id="pdf-icon" d="M2.767,5.534h9.224a.615.615,0,0,1,.615.615v5.227a.615.615,0,0,1-.615.615H2.767v1.537a.307.307,0,0,0,.307.307H13.528a.307.307,0,0,0,.307-.307V4.451L13.69,4.3H11.867a1.413,1.413,0,0,1-1.413-1.413V1.047L10.329.922H3.075a.307.307,0,0,0-.307.307Zm-.922,6.457H.615A.615.615,0,0,1,0,11.376V6.149a.615.615,0,0,1,.615-.615h1.23V1.23A1.23,1.23,0,0,1,3.075,0h7.639l4.045,4.071v9.457a1.23,1.23,0,0,1-1.23,1.23H3.075a1.23,1.23,0,0,1-1.23-1.23V11.991Zm-.57-5.181v3.951h.647V9.245H2.9c.963,0,1.444-.41,1.444-1.223S3.865,6.809,2.913,6.809Zm.647.553h.941a1.01,1.01,0,0,1,.625.155.59.59,0,0,1,.2.5.618.618,0,0,1-.2.515,1.056,1.056,0,0,1-.631.155H1.923ZM4.9,6.809v3.951H6.344A1.894,1.894,0,0,0,7.8,10.23a2.038,2.038,0,0,0,.476-1.444A2.02,2.02,0,0,0,7.8,7.341a1.894,1.894,0,0,0-1.455-.531Zm.647.553h.675A1.476,1.476,0,0,1,7.3,7.7a1.5,1.5,0,0,1,.332,1.085A1.518,1.518,0,0,1,7.3,9.864a1.476,1.476,0,0,1-1.079.343H5.547V7.363Zm3.337-.553v3.951h.647V9.012h1.931V8.459H9.532v-1.1H11.58V6.809Z" transform="translate(250 559)" fill="#de5a38"/>
    <g id="Rectangle_39185" data-name="Rectangle 39185" transform="translate(239 554)" fill="none" stroke="#de5a38" stroke-width="1">
      <rect width="36" height="24" rx="6" stroke="none"/>
      <rect x="0.5" y="0.5" width="35" height="23" rx="5.5" fill="none"/>
    </g>
  </g>
</svg>
