<svg xmlns="http://www.w3.org/2000/svg" width="36" height="24" viewBox="0 0 36 24">
  <g id="Group_76005" data-name="Group 76005" transform="translate(-289 -163)">
    <g id="Rectangle_39185" data-name="Rectangle 39185" transform="translate(289 163)" fill="none" stroke="#de5a38" stroke-width="1">
      <rect width="36" height="24" rx="6" stroke="none"/>
      <rect x="0.5" y="0.5" width="35" height="23" rx="5.5" fill="none"/>
    </g>
    <g id="reminder_1_" data-name="reminder (1)" transform="translate(296 168)">
      <path id="Path_178433" data-name="Path 178433" d="M370.1,215.4l3.381,3.333V214.9a5.267,5.267,0,0,1-2.425.593A6.15,6.15,0,0,1,370.1,215.4Zm0,0" transform="translate(-353.723 -205.388)" fill="#de5a38"/>
      <path id="Path_178434" data-name="Path 178434" d="M20.378,161l-1.739,1.226a1.78,1.78,0,0,1-2.058,0L14.709,160.9,8.1,167.409H27.087L23.122,163.5a5.322,5.322,0,0,1-2.744-2.5Zm0,0" transform="translate(-7.743 -153.778)" fill="#de5a38"/>
      <path id="Path_178435" data-name="Path 178435" d="M0,49.1V60.214l6.554-6.457Zm0,0" transform="translate(0 -46.929)" fill="#de5a38"/>
      <path id="Path_178436" data-name="Path 178436" d="M23.993,50.677,25.808,49.4a5.313,5.313,0,0,1,.443-4.8L14,44.632l8.506,6.041a1.291,1.291,0,0,0,1.487,0Zm0,0" transform="translate(-13.38 -42.627)" fill="#de5a38"/>
      <path id="Path_178437" data-name="Path 178437" d="M288.191,0a4.78,4.78,0,0,0-3.421,1.443l-.026.026c-.071.071-.137.146-.2.221a.2.2,0,0,0-.027.031,2.732,2.732,0,0,0-.173.221.192.192,0,0,0-.022.031,4.8,4.8,0,0,0-.624,4.505c.013.04.031.084.049.124s.031.075.049.115c.035.075.071.155.106.23.049.1.106.2.164.3a4.824,4.824,0,0,0,1.766,1.739,4.767,4.767,0,0,0,4.784-.04c.084-.049.168-.1.248-.155s.168-.119.248-.181A4.806,4.806,0,0,0,288.191,0Zm2.793,7.094a.284.284,0,0,1-.115.1.24.24,0,0,1-.1.018h-1.394a1.056,1.056,0,1,1-2.107,0h-1.655a.243.243,0,0,1-.212-.119.24.24,0,0,1,0-.243l.323-.6a1.494,1.494,0,0,0,.177-.7V3.784a2.331,2.331,0,0,1,.876-1.819.2.2,0,0,1,.031-.022,2.131,2.131,0,0,1,.359-.226.417.417,0,0,1,.044-.022,2.327,2.327,0,0,1,.863-.23c.053,0,.1,0,.155,0s.1,0,.146,0a2.191,2.191,0,0,1,.867.23.109.109,0,0,1,.031.018,2.175,2.175,0,0,1,.358.235s.013.009.018.013a2.692,2.692,0,0,1,.2.181,2.333,2.333,0,0,1,.164.19c.049.066.1.133.142.2a2.369,2.369,0,0,1,.345,1.248V5.426a2.046,2.046,0,0,0,.124.69,1.967,1.967,0,0,0,.106.239l.142.266.124.23A.263.263,0,0,1,290.984,7.094Zm0,0" transform="translate(-270.856)" fill="#de5a38"/>
      <path id="Path_178438" data-name="Path 178438" d="M382.752,163.536a.614.614,0,0,0,.558-.637H382.2A.6.6,0,0,0,382.752,163.536Zm0,0" transform="translate(-365.284 -155.689)" fill="#de5a38"/>
      <path id="Path_178439" data-name="Path 178439" d="M346.864,47.571V45.929a1.875,1.875,0,0,0-.257-.96,1.664,1.664,0,0,0-.142-.2,2.264,2.264,0,0,0-.168-.186,1.766,1.766,0,0,0-1.084-.473,1.272,1.272,0,0,0-.128,0c-.044,0-.093,0-.137,0a1.826,1.826,0,0,0-1.686,1.823v1.761a1.962,1.962,0,0,1-.235.934l-.128.239h4.328l-.071-.133A2.463,2.463,0,0,1,346.864,47.571Zm0,0" transform="translate(-327.723 -42.15)" fill="#de5a38"/>
    </g>
  </g>
</svg>
