<svg id="icon_filter" data-name="icon/filter" xmlns="http://www.w3.org/2000/svg" width="16" height="15" viewBox="0 0 16 15">
  <path id="Vector_Stroke_" data-name="Vector (Stroke)" d="M9.143,15a.757.757,0,0,1-.762-.751V13.5H.762a.75.75,0,1,1,0-1.5H8.381v-.75a.762.762,0,0,1,1.524,0v3A.757.757,0,0,1,9.143,15Zm5.333-1.5H12.191a.75.75,0,1,1,0-1.5h2.286a.75.75,0,1,1,0,1.5ZM6.857,9.75A.757.757,0,0,1,6.095,9V6A.762.762,0,0,1,7.619,6v.75h7.618a.75.75,0,1,1,0,1.5H7.619V9A.757.757,0,0,1,6.857,9.75ZM3.81,8.25H.762a.75.75,0,1,1,0-1.5H3.81a.75.75,0,1,1,0,1.5ZM9.143,4.5a.757.757,0,0,1-.762-.75V3H.762a.75.75,0,1,1,0-1.5H8.381V.75A.762.762,0,0,1,9.9.75v3A.756.756,0,0,1,9.143,4.5ZM14.477,3H12.191a.75.75,0,1,1,0-1.5h2.286a.75.75,0,1,1,0,1.5Z" fill="#717171"/>
</svg>
