<svg xmlns="http://www.w3.org/2000/svg" width="33" height="26" viewBox="0 0 33 26">
  <g id="Group_75956" data-name="Group 75956" transform="translate(-19172 -583)">
    <g id="Ellipse_2435" data-name="Ellipse 2435" transform="translate(19172 585)" fill="none" stroke="#404040" stroke-width="1">
      <ellipse cx="12.5" cy="12" rx="12.5" ry="12" stroke="none"/>
      <ellipse cx="12.5" cy="12" rx="12" ry="11.5" fill="none"/>
    </g>
    <g id="Ellipse_2436" data-name="Ellipse 2436" transform="translate(19191 583)" fill="#fff" stroke="#ff9615" stroke-width="1">
      <circle cx="7" cy="7" r="7" stroke="none"/>
      <circle cx="7" cy="7" r="6.5" fill="none"/>
    </g>
    <path id="Path_176650" data-name="Path 176650" d="M179.217,28.194c.066.045.117.084.171.116.13.077.264.147.391.229a.971.971,0,0,1,.469.841q.01.652,0,1.3c0,.125.033.17.159.158a2.58,2.58,0,0,1,.354,0,.426.426,0,0,1,.016.851c-.038,0-.076,0-.113,0q-2.319,0-4.637,0a.47.47,0,0,1-.463-.239.423.423,0,0,1,.36-.616,4.07,4.07,0,0,1,.411,0c.094,0,.121-.032.12-.125-.005-.425,0-.851-.005-1.276a1.013,1.013,0,0,1,.54-.945l.5-.284a1,1,0,0,0-.1-.077c-.138-.082-.278-.161-.417-.242a.992.992,0,0,1-.521-.9q-.008-.645,0-1.29c0-.112-.025-.154-.142-.142a2.787,2.787,0,0,1-.34,0,.443.443,0,0,1-.457-.426.438.438,0,0,1,.467-.429q2.134,0,4.269,0c.161,0,.321,0,.482,0a.428.428,0,1,1,.005.854,3.153,3.153,0,0,1-.354,0c-.111-.01-.135.033-.134.137.006.416,0,.832.006,1.248a1.02,1.02,0,0,1-.54.959l-.494.287m-.871,2.647v0c.307,0,.614,0,.921,0,.106,0,.137-.033.135-.139q-.01-.631,0-1.261a.215.215,0,0,0-.122-.215c-.284-.16-.563-.328-.848-.484a.2.2,0,0,0-.166,0c-.277.152-.547.317-.823.471a.251.251,0,0,0-.145.249q.007.624,0,1.247c0,.1.029.131.129.13.307-.006.614,0,.921,0m.008-5.274h0c-.312,0-.624,0-.935,0-.108,0-.124.042-.123.133q.006.63,0,1.261a.223.223,0,0,0,.121.219c.283.16.562.328.847.486a.186.186,0,0,0,.154,0c.3-.166.6-.338.894-.517a.22.22,0,0,0,.083-.161c.006-.434,0-.869,0-1.3,0-.1-.034-.119-.124-.118-.307,0-.614,0-.921,0" transform="translate(19019.635 562.036)" fill="#ff9615"/>
    <g id="Group_75236" data-name="Group 75236" transform="translate(19178.814 591.519)">
      <path id="Path_176646" data-name="Path 176646" d="M8.038,12.716c-.17-.167-.361-.328-.52-.516a2.843,2.843,0,1,1,5-2.237,2.861,2.861,0,0,1-2.376,3.223c-.342.046-.69.051-1.033.093a3.9,3.9,0,0,0-3.251,3.008,7.741,7.741,0,0,0-.1.8.5.5,0,0,1-.214.44.38.38,0,0,1-.576-.261A2.979,2.979,0,0,1,5,16.533a4.693,4.693,0,0,1,2.348-3.47c.225-.134.47-.236.693-.347m3.692-2.338A2.028,2.028,0,0,0,9.659,8.348a2.039,2.039,0,1,0,2.071,2.031" transform="translate(-4.802 -7.361)" fill="#404040"/>
      <path id="Path_176647" data-name="Path 176647" d="M178.661,183.518a2.321,2.321,0,0,0,2.022,2.3,2.234,2.234,0,0,0,2.036-.784,2.2,2.2,0,0,1,.174-.188.4.4,0,0,1,.5-.019.383.383,0,0,1,.137.465,1.23,1.23,0,0,1-.194.26,3.02,3.02,0,0,1-2.817,1.056,3.077,3.077,0,0,1-2.605-2.542,2.992,2.992,0,0,1,1-2.866,2.921,2.921,0,0,1,2.789-.707,3.037,3.037,0,0,1,2.327,2.4,3.387,3.387,0,0,1,.073.613.391.391,0,0,1-.38.418.412.412,0,0,1-.413-.381,2.574,2.574,0,0,0-.239-1.014,2.2,2.2,0,0,0-2.029-1.314,2.272,2.272,0,0,0-2.18,1.368,1.991,1.991,0,0,0-.195.928" transform="translate(-172.277 -174.793)" fill="#404040"/>
      <path id="Path_176648" data-name="Path 176648" d="M226.961,239.5a.818.818,0,0,1-.189-.077q-.562-.417-1.116-.844a.388.388,0,0,1,.168-.693.525.525,0,0,1,.316.075c.224.147.434.315.644.482.081.064.124.072.19-.023.332-.475.671-.944,1.008-1.415a.4.4,0,0,1,.485-.207.387.387,0,0,1,.233.545.9.9,0,0,1-.077.13q-.64.9-1.281,1.793a.469.469,0,0,1-.38.234" transform="translate(-218.417 -229.399)" fill="#404040"/>
      <rect id="Rectangle_39152" data-name="Rectangle 39152" width="12" height="11" transform="translate(0.186 0.481)" fill="none"/>
    </g>
  </g>
</svg>
