<svg xmlns="http://www.w3.org/2000/svg" width="218.584" height="203.059" viewBox="0 0 218.584 203.059">
    <g data-name="No data-cuate">
        <path data-name="Path 46822" d="m589.992 118.361-3.418 16.556-2.2-2.147-3.743 2.672-2.861-3.554-6.415 4.665-5.483-9.169-6.115 3.583-2.425-3.343-7.766 4.376-2.336-5 5.444-26.364 29.182 6.026z" transform="translate(-375.205 -77.377)" style="fill:#ebebeb"/>
        <path data-name="Path 46823" d="m640.6 117.5 8.137 11.705-10.123-2.09z" transform="translate(-433.946 -88.222)" style="fill:#dbdbdb"/>
        <path data-name="Path 46824" d="m575.58 191.629-5.011 24.289-39.309-8.118 4.976-24.092 2.336 5 7.769-4.376 2.422 3.343 6.119-3.579 5.479 9.169 6.419-4.665 2.857 3.55 3.747-2.668z" transform="translate(-364.94 -130.782)" style="fill:#ebebeb"/>
        <path data-name="Path 46825" d="m420.011 106.515-40.059 2.479-3.182-51.421 29.746-1.843 10.919 9.162z" transform="translate(-265.631 -48.515)" style="fill:#ebebeb"/>
        <path data-name="Path 46826" d="m460.05 55.73 10.919 9.162-10.316.639z" transform="translate(-319.165 -48.515)" style="fill:#dbdbdb"/>
        <path data-name="Path 46827" d="m419.692 112.513-.157-1.161c-.4-2.4.254-5.093 2.343-7.9 1.886-2.5 2.908-4.286 2.793-6.315-.129-2.286-1.647-3.729-4.472-3.615a7.969 7.969 0 0 0-4.447 1.643L414.52 92.4a11.694 11.694 0 0 1 6.3-2.143c5.154-.286 7.662 2.765 7.858 6.169.171 3.047-1.407 5.336-3.415 8.012-1.843 2.44-2.447 4.451-2.186 6.726l.111 1.164zm-.636 6.326a2.65 2.65 0 0 1 2.529-2.972 2.806 2.806 0 1 1-2.543 2.972z" transform="translate(-289.898 -70.697)" style="fill:#dbdbdb"/>
        <path data-name="Path 46828" d="M124.709 124.825 120.68 123l-.561 1.232a1.072 1.072 0 0 1-.918.614 5.17 5.17 0 0 0-.661.064 1.072 1.072 0 0 1-1.018-.421l-.789-1.1-3.6 2.579.789 1.1a1.072 1.072 0 0 1 .071 1.1 6.527 6.527 0 0 0-.275.6 1.072 1.072 0 0 1-.875.675l-1.347.132.432 4.4 1.354-.136a1.072 1.072 0 0 1 .989.493 4.884 4.884 0 0 0 .382.532 1.05 1.05 0 0 1 .15 1.089l-.564 1.243 4.033 1.829.561-1.239a1.072 1.072 0 0 1 .922-.611 5.783 5.783 0 0 0 .654-.064 1.072 1.072 0 0 1 1.018.421l.789 1.1 3.6-2.579-.789-1.1a1.039 1.039 0 0 1-.071-1.1 6.41 6.41 0 0 0 .268-.6 1.05 1.05 0 0 1 .875-.675l1.354-.136-.436-4.4-1.354.132a1.05 1.05 0 0 1-.982-.489c-.061-.093-.121-.182-.186-.271s-.129-.179-.2-.261a1.072 1.072 0 0 1-.15-1.1zm-2.286 4.076a3.625 3.625 0 1 1-5.058-.836 3.625 3.625 0 0 1 5.058.835z" transform="translate(-95.112 -91.757)" style="fill:#ebebeb"/>
        <path data-name="Path 46829" d="m651.065 291.71-2.686 1.55.475.822a.715.715 0 0 1-.025.775 4.907 4.907 0 0 0-.232.4.714.714 0 0 1-.654.407H647v3.1h.95a.714.714 0 0 1 .654.407c.071.139.15.271.232.4a.715.715 0 0 1 .025.775l-.475.822 2.686 1.55.479-.825a.733.733 0 0 1 .682-.357h.457a.736.736 0 0 1 .682.357l.479.829 2.682-1.55-.475-.825a.732.732 0 0 1 .029-.772c.082-.129.161-.264.232-.4a.715.715 0 0 1 .654-.407h.95v-3.1h-.957a.714.714 0 0 1-.654-.407 5.474 5.474 0 0 0-.232-.4.732.732 0 0 1-.029-.772l.475-.825-2.682-1.55-.479.814a.732.732 0 0 1-.682.357h-.457a.743.743 0 0 1-.686-.357zm1.389 2.965a2.533 2.533 0 1 1-1.8.742 2.543 2.543 0 0 1 1.8-.742z" transform="translate(-439.339 -200.206)" style="fill:#ebebeb"/>
        <path data-name="Path 46830" d="m164.936 90.549-2.461 1.886.568.754a.714.714 0 0 1 .075.768 3.743 3.743 0 0 0-.179.429.732.732 0 0 1-.6.489L161.4 95l.4 3.075.943-.121a.736.736 0 0 1 .714.321 3.979 3.979 0 0 0 .279.357.714.714 0 0 1 .129.761l-.357.879 2.857 1.189.357-.879a.732.732 0 0 1 .632-.446l.229-.025.225-.036a.736.736 0 0 1 .714.268l.582.761 2.461-1.886-.575-.754a.736.736 0 0 1-.075-.772 3.972 3.972 0 0 0 .179-.425.732.732 0 0 1 .6-.489l.943-.121-.4-3.075-.943.121a.736.736 0 0 1-.714-.318 3.185 3.185 0 0 0-.282-.357.739.739 0 0 1-.107-.747l.357-.879-2.857-1.189-.357.879a.739.739 0 0 1-.632.446l-.229.021-.211.007a.736.736 0 0 1-.714-.268zm1.764 2.761a2.54 2.54 0 1 1-1.691.973 2.54 2.54 0 0 1 1.691-.973z" transform="translate(-127.189 -70.679)" style="fill:#ebebeb"/>
        <path data-name="Path 46831" d="M107.638 239.118a98.452 98.452 0 0 0-.143-10.358 132.441 132.441 0 0 0-3.247-21.131c-.907-3.908-2.022-7.751-3.186-11.591-.036-.118-.221-.086-.189.036 3.6 13.537 6.547 27.5 6.344 41.577-.057 3.929-.514 7.8-.886 11.719 0 .1.161.146.186.039a59.335 59.335 0 0 0 1.121-10.291z" transform="translate(-88.279 -138.659)" style="fill:#ebebeb"/>
        <path data-name="Path 46832" d="M92.956 196.24s-5.444 13.823-4.226 17.06a6.229 6.229 0 0 0 3.733 3.929s-3.333 4.758-1 9.219 7.5 4.251 7.858 9.308c-.014.025.271-21.124-6.365-39.516z" transform="translate(-80.361 -138.837)" style="fill:#ebebeb"/>
        <path data-name="Path 46833" d="M105.252 232.289a.1.1 0 0 0 0-.071 126.555 126.555 0 0 0-5.279-27.807c0-.025-.054-.018-.046 0q1.618 6.072 2.857 12.194a6.026 6.026 0 0 0-2.6-1.45s-.029.021 0 .029a6.911 6.911 0 0 1 2.686 1.786c.157.8.314 1.6.461 2.407a11.149 11.149 0 0 0-4.593-2.679.021.021 0 0 0 0 .039 11.053 11.053 0 0 1 4.7 3.154q.622 3.44 1.093 6.9a6.583 6.583 0 0 0-3.247-1.861c-.039 0-.061.046-.021.057a6.844 6.844 0 0 1 3.272 2.122h.021q.161 1.214.307 2.44a8.348 8.348 0 0 0-2.275-1.372c-.021 0-.036.025 0 .032a7.818 7.818 0 0 1 2.282 1.511h.029c.089.775.179 1.55.257 2.325a11.073 11.073 0 0 0-4.618-3.3.029.029 0 1 0 0 .057 12.03 12.03 0 0 1 4.551 3.5.107.107 0 0 0 .114.036c.118 1.189.225 2.379.311 3.572a.014.014 0 0 0 .029 0q-.137-1.788-.291-3.621z" transform="translate(-86.9 -144.079)" style="fill:#fff"/>
        <path data-name="Path 46834" d="M98.823 228.872a6.819 6.819 0 0 0-3.272-1.022.021.021 0 0 0 0 .043 12.917 12.917 0 0 1 3.236 1.072c.043.01.076-.065.036-.093z" transform="translate(-84.847 -159.156)" style="fill:#fff"/>
        <path data-name="Path 46835" d="M102.136 270.169a6.808 6.808 0 0 0-2.457-.839c-.029 0-.032.039 0 .046a9.305 9.305 0 0 1 2.429.85c.032.018.061-.039.028-.057z" transform="translate(-87.499 -185.82)" style="fill:#fff"/>
        <path data-name="Path 46836" d="M134.66 244.623a37.04 37.04 0 0 0-6.3 5.508 22.57 22.57 0 0 0-4.418 7.5 56.054 56.054 0 0 0-3.293 17.931 43.692 43.692 0 0 0 .968 10.083.1.1 0 0 0 .189-.036 56.65 56.65 0 0 1 .1-17.627c.936-5.715 2.4-11.937 6.04-16.584a45.813 45.813 0 0 1 6.887-6.579c.123-.119-.041-.289-.173-.196z" transform="translate(-100.984 -169.921)" style="fill:#ebebeb"/>
        <path data-name="Path 46837" d="M122.9 270.954a33.93 33.93 0 0 1 4.593-5.872c2.725-2.725 5.018-4.661 5.376-6.462s-2.729-3.129-2.729-3.129 3.768.679 4.8-.9 1.529-10.748 1.529-10.748-6.858 4.9-10.055 11.762-3.514 15.349-3.514 15.349z" transform="translate(-102.44 -169.435)" style="fill:#ebebeb"/>
        <path data-name="Path 46838" d="M134.046 250.358c-2.886 2.832-5.79 5.854-7.5 9.58a36.735 36.735 0 0 0-1.518 3.947c-.086.271-.175.543-.257.814a.068.068 0 0 0 0 .043 77.964 77.964 0 0 0-1.95 8.469c0 .018.025.025.029 0 .3-1.429.622-2.858.986-4.311a.1.1 0 0 0 .043 0 6.122 6.122 0 0 1 1.786-.457c.039 0 .036-.075 0-.071a6.707 6.707 0 0 0-1.786.325c.332-1.3.693-2.593 1.1-3.868a19.046 19.046 0 0 1 4.068-.532v-.021a15.36 15.36 0 0 0-4 .339c.071-.218.146-.436.218-.654a21.118 21.118 0 0 1 2.707-.461v-.029a13.213 13.213 0 0 0-2.65.321c.357-1.1.775-2.193 1.222-3.25a19.645 19.645 0 0 1 1.3-2.5 16.255 16.255 0 0 1 2.2-.393v-.036a5.954 5.954 0 0 0-2.054.2c.357-.582.739-1.154 1.147-1.707a11.55 11.55 0 0 1 4.672-.357.025.025 0 0 0 0-.046 9.807 9.807 0 0 0-4.472.125c.161-.214.329-.429.5-.639a10.154 10.154 0 0 1 2.857-.454v-.035a7.532 7.532 0 0 0-2.679.239c1.272-1.579 2.675-3.065 4.065-4.533.084-.077.034-.116-.034-.048z" transform="translate(-102.389 -173.602)" style="fill:#fff"/>
        <path data-name="Path 46839" d="M151.475 267.792a6.014 6.014 0 0 0-1.364-.046c-.054 0-.05.093 0 .1.45 0 .9-.021 1.354 0a.029.029 0 0 0 .011-.05z" transform="translate(-119.906 -184.789)" style="fill:#fff"/>
        <path data-name="Path 46840" d="M136.4 292.8a6.144 6.144 0 0 0-2.115.421v.032c.714-.168 1.4-.236 2.111-.357a.054.054 0 0 0 0-.1z" transform="translate(-109.762 -200.907)" style="fill:#fff"/>
        <path data-name="Path 46841" d="M134.423 284.2a4.721 4.721 0 0 0-.9.079.029.029 0 0 0 0 .054 4.427 4.427 0 0 0 .9-.039.046.046 0 1 0 0-.093z" transform="translate(-109.259 -195.378)" style="fill:#fff"/>
        <path data-name="Path 46842" d="M66.337 271.878a31.13 31.13 0 0 1 6.376 3 19.048 19.048 0 0 1 5.311 5.043 47.22 47.22 0 0 1 6.808 13.748 36.619 36.619 0 0 1 1.543 8.387.082.082 0 0 1-.161 0 47.581 47.581 0 0 0-4.151-14.241c-2.082-4.411-4.708-9.1-8.722-12.026a38.616 38.616 0 0 0-7.094-3.733c-.128-.038-.039-.221.09-.178z" transform="translate(-65.983 -187.454)" style="fill:#ebebeb"/>
        <path data-name="Path 46843" d="M82.869 290.262a28.677 28.677 0 0 0-5.076-3.69c-2.836-1.575-5.14-2.611-5.844-3.986s1.486-3.161 1.486-3.161-2.893 1.429-4.093.375-3.722-8.34-3.722-8.34 6.683 2.375 10.851 7.194a39.015 39.015 0 0 1 6.398 11.608z" transform="translate(-65.62 -187.189)" style="fill:#ebebeb"/>
        <path data-name="Path 46844" d="M87.905 291.677C84.566 285.4 80.1 279.729 74 276a30.811 30.811 0 0 1 4.472 3.5 7.1 7.1 0 0 0-3.593.757.021.021 0 0 0 0 .039 9.823 9.823 0 0 1 3.7-.625.089.089 0 0 0 .043 0c.218.2.429.414.643.625a11.238 11.238 0 0 0-1.922.254v.029a9.643 9.643 0 0 1 2.025-.168 41.753 41.753 0 0 1 3.154 3.572 3.159 3.159 0 0 0-1.343.1.025.025 0 0 0 0 .05 7.115 7.115 0 0 1 1.429-.018c.182.232.357.464.547.714a12.812 12.812 0 0 0-4.054.393c-.021 0 0 .036 0 .032a16.3 16.3 0 0 1 4.19-.321c.171.225.332.457.5.686a8.772 8.772 0 0 0-2.415.279.025.025 0 0 0 0 .046 9.319 9.319 0 0 1 2.5-.193c.714.989 1.407 2 2.068 3.025a2.273 2.273 0 0 0-1.072.064v.029a4.737 4.737 0 0 1 1.147.057q.893 1.386 1.722 2.8c.082.094.211.033.164-.049z" transform="translate(-71.007 -190.107)" style="fill:#fff"/>
        <path data-name="Path 46845" d="M94.883 305.3a5.126 5.126 0 0 0-1.943.239v.029a14.577 14.577 0 0 1 1.932-.2c.047-.002.058-.068.011-.068z" transform="translate(-83.182 -208.932)" style="fill:#fff"/>
        <path data-name="Path 46846" d="M80.41 283.9a3.283 3.283 0 0 0-.9.05c-.032 0-.021.057 0 .054.3-.032.586-.021.879-.029a.039.039 0 0 0 .018-.075z" transform="translate(-74.538 -195.179)" style="fill:#fff"/>
        <path data-name="Path 46847" d="M110.894 346.555H95.81l2.15-15.755.55-4.04h9.683l.55 4.04z" transform="translate(-85.027 -222.737)" style="fill:#dbdbdb"/>
        <path data-name="Path 46848" d="M112.613 330.8H101.83l.55-4.04h9.683z" transform="translate(-88.896 -222.737)" style="fill:#c7c7c7"/>
        <path data-name="Rectangle 18384" transform="translate(12.098 102.623)" style="fill:#dbdbdb" d="M0 0h12.452v3.422H0z"/>
        <g>
            <path data-name="Path 46849" d="m68.96 381.859 27.15-.086 27.15-.032 54.3-.061 54.3.061 27.15.032 27.15.086-27.15.089-27.15.029-54.3.061-54.3-.061-27.15-.032z" transform="translate(-67.767 -258.04)" style="fill:#263238"/>
        </g>
        <g transform="translate(8.087 127.994)">
            <ellipse data-name="Ellipse 1793" cx="102.42" cy="11.223" rx="102.42" ry="11.223" style="fill:#ebebeb"/>
        </g>
        <g>
            <path data-name="Path 46949" d="M369.133 262.148H271.64l14.1-79.948h97.493z" transform="translate(-211.187 -122.516)" style="fill:#ffc727"/>
            <path data-name="Path 46950" d="M349.058 156.32h-31.906l-1.462 8.28h34.146z" transform="translate(-241.141 -104.917)" style="fill:#ffc727"/>
            <g data-name="Group 35035" style="isolation:isolate">
                <path data-name="Path 46951" d="M369.133 262.148H271.64l14.1-79.948h97.493z" transform="translate(-211.186 -122.516)" style="fill:#05346f"/>
                <path data-name="Path 46952" d="M349.058 156.32h-31.906l-1.462 8.28h34.146z" transform="translate(-241.141 -104.917)" style="fill:#05346f"/>
            </g>
            <path data-name="Path 46957" d="M289.486 193.91a5.645 5.645 0 0 1-1.126.835 5.49 5.49 0 0 1-1.28.557 5.439 5.439 0 0 1 1.126-.835 5.375 5.375 0 0 1 1.28-.557z" transform="translate(-221.686 -130.479)" style="fill:#263238"/>
            <path data-name="Path 46958" d="M298.282 200.3a6.121 6.121 0 0 1-1.392 2.413 5.385 5.385 0 0 1 .56-1.28 5.539 5.539 0 0 1 .832-1.133z" transform="translate(-228.357 -134.824)" style="fill:#263238"/>
            <path data-name="Path 46959" d="M309.858 202.51a5.584 5.584 0 0 1 .16 1.392 5.44 5.44 0 0 1-.16 1.392 5.3 5.3 0 0 1-.16-1.392 5.584 5.584 0 0 1 .16-1.392z" transform="translate(-237.066 -136.327)" style="fill:#263238"/>
            <path data-name="Path 46960" d="M319.06 199.986a5.441 5.441 0 0 1 .835 1.126 5.376 5.376 0 0 1 .557 1.28 6.121 6.121 0 0 1-1.392-2.413z" transform="translate(-243.433 -134.607)" style="fill:#263238"/>
            <path data-name="Path 46961" d="M325.45 193.3a5.376 5.376 0 0 1 1.28.557 5.44 5.44 0 0 1 1.126.835 5.375 5.375 0 0 1-1.28-.557 5.44 5.44 0 0 1-1.126-.835z" transform="translate(-247.778 -130.064)" style="fill:#263238"/>
            <g data-name="Group 35038">
                <path data-name="Path 46953" d="M.16 2.784A6.133 6.133 0 0 1 .16 0a6.134 6.134 0 0 1 0 2.784z" transform="rotate(14.98 -1.682 661.446)" style="fill:#263238"/>
                <path data-name="Path 46954" d="M1.4 2.406A5.44 5.44 0 0 1 .56 1.28 5.553 5.553 0 0 1 0 0a5.305 5.305 0 0 1 .835 1.123A5.635 5.635 0 0 1 1.4 2.406z" transform="rotate(14.98 -4.183 645.398)" style="fill:#263238"/>
                <path data-name="Path 46955" d="M2.409 1.392A6.137 6.137 0 0 1 0 0a5.49 5.49 0 0 1 1.28.557 5.625 5.625 0 0 1 1.13.835z" transform="rotate(14.98 -14.572 632.2)" style="fill:#263238"/>
                <path data-name="Path 46956" d="M2.784.16A6.134 6.134 0 0 1 0 .16a6.134 6.134 0 0 1 2.784 0z" transform="rotate(14.98 -29.583 626.001)" style="fill:#263238"/>
                <path data-name="Path 46962" d="M0 .16a6.15 6.15 0 0 1 2.787 0A6.15 6.15 0 0 1 0 .16z" transform="rotate(14.98 -35.844 679.994)" style="fill:#263238"/>
                <path data-name="Path 46963" d="M.006 1.392A5.538 5.538 0 0 1 1.133.56 5.26 5.26 0 0 1 2.413 0 6.121 6.121 0 0 1 0 1.392z" transform="rotate(14.98 -19.993 678.9)" style="fill:#263238"/>
                <path data-name="Path 46964" d="M0 2.406a5.626 5.626 0 0 1 .557-1.28A5.44 5.44 0 0 1 1.392 0a5.376 5.376 0 0 1-.557 1.28A5.44 5.44 0 0 1 0 2.406z" transform="rotate(14.98 -7.317 672.38)" style="fill:#263238"/>
            </g>
            <path data-name="Path 46965" d="M338.755 268.316h-97.7L227.18 191.27h97.7z" transform="translate(-180.953 -128.684)" style="fill:#3966a1"/>
        </g>
        <g>
            <path data-name="Path 46983" d="M279.527 77.648a8.9 8.9 0 0 1-14.873 5.633l-4.454.654 2.229-3.85a8.9 8.9 0 1 1 17.1-2.436z" transform="translate(-98.344 -67.727)" style="fill:#fff"/>
            <path data-name="Path 46984" d="M279.013 77.464a8.93 8.93 0 0 1-1.786 4.511 7.9 7.9 0 0 1-1.747 1.725 8.666 8.666 0 0 1-2.143 1.2 8.763 8.763 0 0 1-2.4.572 8.929 8.929 0 0 1-1.236.025 7.923 7.923 0 0 1-1.232-.129 8.987 8.987 0 0 1-4.4-2.175l.1.032-4.447.682-.325.05.164-.286 2.215-3.858v.154a8.994 8.994 0 0 1 .55-7.933 8.946 8.946 0 0 1 14.048-1.934 8.93 8.93 0 0 1 2.639 7.364zm0 0a8.8 8.8 0 0 0-10.094-9.644 8.709 8.709 0 0 0-3.675 1.45 9.176 9.176 0 0 0-2.665 2.908 8.794 8.794 0 0 0-1.132 3.765 8.883 8.883 0 0 0 .629 3.908l.032.079-.043.075-2.243 3.843-.157-.236 4.458-.625h.061l.043.039a8.773 8.773 0 0 0 4.265 2.182 7.585 7.585 0 0 0 1.207.146 8.665 8.665 0 0 0 1.218 0 8.93 8.93 0 0 0 2.379-.525 8.374 8.374 0 0 0 2.143-1.157 8.138 8.138 0 0 0 1.75-1.7 8.93 8.93 0 0 0 1.824-4.508z" transform="translate(-97.83 -67.542)" style="fill:#263238"/>
        </g>
        <g data-name="Group 35037">
            <path data-name="Path 45178" d="M281 105.389c.071.238 0 .473-.156.517s-.339-.112-.409-.35 0-.473.156-.521.341.116.409.354z" transform="translate(-116.992 -64.281)" style="fill:#263238"/>
            <path data-name="Path 45179" d="M281.153 107.26a8.933 8.933 0 0 1-.543 2.393 1.448 1.448 0 0 0 1.213-.123z" transform="translate(-117.12 -65.683)" style="fill:#ed847e"/>
            <path data-name="Path 45180" d="M280.973 101.116a.149.149 0 0 0 .067-.082.141.141 0 0 0-.089-.186 1.452 1.452 0 0 0-1.333.153.149.149 0 0 0 .179.235 1.161 1.161 0 0 1 1.057-.112.149.149 0 0 0 .119-.008z" transform="translate(-116.47 -61.597)" style="fill:#263238"/>
            <path data-name="Path 45181" d="M294.723 109.616c.164 1.973.651 5.583 1.816 6.417 0 0-.275 2.371-4.467 2.978-4.593.677-2.531-1.958-2.531-1.958 2.416-.968 2.077-2.818 1.385-4.5l1.772-2.032c.681-.752 1.936-1.913 2.025-.905z" transform="translate(-122.437 -66.915)" style="fill:#ffc3bd"/>
            <path data-name="Path 45182" d="M297.886 126.618c.372-.339-.372-1.694-.83-1.883-1.2-.5-6.1 0-7.943 1.582a2.032 2.032 0 0 0-.145 1.746z" transform="translate(-122.283 -76.535)" style="fill:#fff"/>
            <path data-name="Path 45183" d="M353.589 396.346a1 1 0 0 1-.774.022.305.305 0 0 1-.1-.335.339.339 0 0 1 .171-.231c.4-.234 1.4.074 1.437.089a.071.071 0 0 1 .052.06.074.074 0 0 1-.037.074 4 4 0 0 1-.748.32zm-.543-.454-.086.037a.2.2 0 0 0-.1.134c-.026.134.026.175.041.186.179.127.785-.056 1.206-.268a2.438 2.438 0 0 0-1.062-.089z" transform="translate(-162.376 -246.768)" style="fill:#074089"/>
            <path data-name="Path 45184" d="M354.986 394.574a.063.063 0 0 1-.037 0c-.372-.074-1.15-.54-1.191-.89a.238.238 0 0 1 .168-.253.4.4 0 0 1 .328 0c.432.179.767 1.012.778 1.046a.067.067 0 0 1 0 .074.056.056 0 0 1-.045.022zm-.968-1.016a.06.06 0 0 0-.034 0c-.086.037-.082.082-.078.1.022.208.551.584.927.722a1.836 1.836 0 0 0-.637-.823.249.249 0 0 0-.178.001z" transform="translate(-163.039 -245.313)" style="fill:#074089"/>
            <path data-name="Path 45185" d="M294.855 406.886c-.4 0-.782-.056-.912-.234a.275.275 0 0 1 0-.32.372.372 0 0 1 .231-.175c.517-.138 1.6.48 1.649.506a.071.071 0 0 1-.022.134 5.26 5.26 0 0 1-.946.089zm-.491-.6a.42.42 0 0 0-.141.019.235.235 0 0 0-.145.1c-.052.093-.033.138 0 .164.145.2.931.2 1.489.123a3.3 3.3 0 0 0-1.203-.409z" transform="translate(-125.458 -253.31)" style="fill:#074089"/>
            <path data-name="Path 45186" d="M297.156 405.56h-.03c-.372-.167-1.117-.841-1.061-1.191 0-.082.074-.186.275-.2a.528.528 0 0 1 .406.127 2.084 2.084 0 0 1 .484 1.195.067.067 0 0 1-.03.067.07.07 0 0 1-.044.002zm-.744-1.258h-.045c-.134 0-.141.067-.145.082-.033.212.473.744.852.972a1.7 1.7 0 0 0-.409-.96.372.372 0 0 0-.254-.096z" transform="translate(-126.82 -252.07)" style="fill:#074089"/>
            <path data-name="Path 45187" d="M302.417 395.591h-3.108L299 388.4h3.108z" transform="translate(-128.665 -242.175)" style="fill:#ffc3bd"/>
            <path data-name="Path 45188" d="m356.993 383.1-2.862.986-2.97-6.778 2.862-.986z" transform="translate(-161.409 -234.592)" style="fill:#ffc3bd"/>
            <path data-name="Path 45189" d="m350.052 393.523 3.35-1.024a.272.272 0 0 1 .316.127l1.4 2.457a.458.458 0 0 1-.272.663c-1.172.339-1.757.443-3.223.893-.9.275-3.182 1.139-4.467 1.4s-1.7-.971-1.2-1.191a7.455 7.455 0 0 0 3.681-2.978.767.767 0 0 1 .415-.347z" transform="translate(-158.012 -244.742)" style="fill:#263238"/>
            <path data-name="Path 45190" d="M288.583 406.75h3.391a.275.275 0 0 1 .264.212l.614 2.762a.45.45 0 0 1-.447.551c-1.225-.019-2.978-.093-4.53-.093-1.8 0-2.553.1-4.664.1-1.273 0-1.627-1.288-1.094-1.407 2.431-.532 3.618-.588 5.717-1.883a1.463 1.463 0 0 1 .748-.242z" transform="translate(-117.916 -253.696)" style="fill:#263238"/>
            <path data-name="Path 45191" d="M314.372 132.84c.9.83 1.686 1.66 2.5 2.527a35.134 35.134 0 0 1 2.293 2.721 25.954 25.954 0 0 1 2.07 3.067 13.379 13.379 0 0 1 .871 1.839c.063.175.127.342.179.532a5.786 5.786 0 0 1 .153.584l.063.309.045.342a3.593 3.593 0 0 1 0 .945 3.95 3.95 0 0 1-.64 1.653 5.492 5.492 0 0 1-.856.986 9.931 9.931 0 0 1-1.7 1.24 22.045 22.045 0 0 1-3.35 1.56 40.367 40.367 0 0 1-6.767 1.861l-.651-2.233c2.021-.875 4.068-1.82 5.956-2.829a22.542 22.542 0 0 0 2.646-1.63 5.954 5.954 0 0 0 .964-.856 1.351 1.351 0 0 0 .22-.316c.03-.063 0-.056-.037.078-.026.249-.022.056-.082-.078-.019-.063-.052-.149-.086-.231s-.074-.175-.115-.264a11.777 11.777 0 0 0-.674-1.18 28.138 28.138 0 0 0-1.861-2.46c-.685-.811-1.407-1.619-2.148-2.412s-1.519-1.593-2.233-2.33z" transform="translate(-134.679 -81.742)" style="fill:#ffc3bd"/>
            <path data-name="Path 45194" d="M305.685 130.212c-.279 2.978 6.019 7.586 6.019 7.586l6.064-4.15a12.76 12.76 0 0 0-4.468-4.748c-3.476-2.224-7.265-2.388-7.615 1.312z" transform="translate(-132.856 -78.272)" style="fill:#074089"/>
            <g data-name="Group 33873" style="opacity:.3">
                <path data-name="Path 45195" d="M305.685 130.212c-.279 2.978 6.019 7.586 6.019 7.586l6.064-4.15a12.76 12.76 0 0 0-4.468-4.748c-3.476-2.224-7.265-2.388-7.615 1.312z" transform="translate(-132.856 -78.272)" style="fill:#fff"/>
            </g>
            <path data-name="Path 45196" d="M277.041 129.912s-2.721 4.176 3.741 26.577l16.43-2.427c-.231-2.271-2.978-12.175-3.071-23a3.871 3.871 0 0 0-4.072-3.838c-.476.026-.968.06-1.455.108a61.233 61.233 0 0 0-6.983 1.031 31.5 31.5 0 0 0-4.59 1.549z" transform="translate(-114.522 -78.211)" style="fill:#074089"/>
            <g data-name="Group 33874" style="opacity:.3">
                <path data-name="Path 45197" d="M277.041 129.912s-2.721 4.176 3.741 26.577l16.43-2.427c-.231-2.271-2.978-12.175-3.071-23a3.871 3.871 0 0 0-4.072-3.838c-.476.026-.968.06-1.455.108a61.233 61.233 0 0 0-6.983 1.031 31.5 31.5 0 0 0-4.59 1.549z" transform="translate(-114.522 -78.211)" style="fill:#fff"/>
            </g>
            <path data-name="Path 45198" d="m276.92 153.693.056-.063 3.864.342c.588 2.494-1.563 5.9-2.7 7.474a72.587 72.587 0 0 1-1.221-7.753z" transform="translate(-114.804 -94.792)" style="opacity:.2"/>
            <path data-name="Path 45199" d="m299 388.41.16 3.707h3.108l-.16-3.707z" transform="translate(-128.665 -242.182)" style="opacity:.2"/>
            <path data-name="Path 45200" d="m354.022 376.32-2.862.986 1.534 3.5 2.862-.986z" transform="translate(-161.409 -234.592)" style="opacity:.2"/>
            <path data-name="Path 45201" d="M289.052 92.752c.685 3 1.236 4.727.19 6.7a4.092 4.092 0 0 1-7.18-.086c-1.411-2.468-2.3-6.964.249-8.989a4.206 4.206 0 0 1 6.741 2.375z" transform="translate(-117.172 -54.503)" style="fill:#ffc3bd"/>
            <path data-name="Path 45202" d="m281.7 95.206-1.143.7.113-3.906a3.376 3.376 0 0 1-2.07-.6c.413-.395 6.845-2.647 8.851-2.256.208-.086.462-.473.462-.473s.078.488-.261.674a1.1 1.1 0 0 1 1.031.432 1.344 1.344 0 0 0-.852.048s2.233.339 1.44 3.436a14.837 14.837 0 0 0-.6 5.375 4.9 4.9 0 0 1-3.1 1.046c-1.54-1.699-3.771-3.739-3.871-4.476z" transform="translate(-115.858 -54.012)" style="fill:#263238"/>
            <path data-name="Path 45203" d="M276.119 90.488a3.034 3.034 0 0 1-2.929-1.63c1.3-.138 4.016-.975 6.03-1.117s4.221.235 3.555 1.117-6.656 1.63-6.656 1.63z" transform="translate(-112.462 -53.411)" style="fill:#263238"/>
            <path data-name="Path 45204" d="M278.387 88.015c-1.489-.208-2.941-1.612-1.824-2.955.413.986 3.2.871 5.181.458 2.606-.543 4.411.335 3.488 2.111-.506.971-6.845.386-6.845.386z" transform="translate(-114.331 -51.746)" style="fill:#263238"/>
            <path data-name="Path 45205" d="M287.679 102.255a3.5 3.5 0 0 1-.1 2.233c-.372.934-1.2.744-1.63-.063-.372-.744-.655-2.1-.022-2.769s1.484-.284 1.752.599z" transform="translate(-120.224 -61.95)" style="fill:#ffc3bd"/>
            <path data-name="Path 45206" d="M303.71 200.907s2.665 22.687 4.6 31.576c2.118 9.737 12.566 36.284 12.566 36.284l5.211-1.8s-6.7-19.988-8.479-33.6c-1.366-10.452-3.313-34.025-3.313-34.025z" transform="translate(-131.622 -123.488)" style="fill:#263238"/>
            <path data-name="Path 45207" d="M346.249 378.75c-.026 0 1.068 2.233 1.068 2.233l6.086-1.977-.715-1.816z" transform="translate(-158.326 -235.138)" style="fill:#074089"/>
            <path data-name="Path 45208" d="M307.66 234.82c.834 6.305 1.9 13.772 2.84 18.54 1.381-7.306 1.7-16.534-2.84-18.54z" transform="translate(-134.101 -145.762)" style="opacity:.3"/>
            <path data-name="Path 45209" d="M284.848 202.916s-2.211 21.314-1.861 30.783c.35 9.849 4.951 40.156 4.951 40.156h5.262s-.968-29.733-.744-39.4c.257-10.545 4.21-33.281 4.21-33.281z" transform="translate(-118.588 -124.637)" style="fill:#263238"/>
            <path data-name="Path 45210" d="M293.6 390.81c-.022 0 .3 2.181.3 2.181h6.4l.175-1.947z" transform="translate(-125.273 -243.689)" style="fill:#074089"/>
            <path data-name="Path 45211" d="M249.539 144.239c-.581.923-1.169 1.753-1.779 2.606s-1.251 1.675-1.9 2.494a47.114 47.114 0 0 1-4.307 4.7c-.417.372-.8.744-1.251 1.083l-.328.264-.164.13c-.06.048-.086.074-.208.164a4.682 4.682 0 0 1-1.2.618 6.991 6.991 0 0 1-2.058.372 11.475 11.475 0 0 1-1.776-.078 22.359 22.359 0 0 1-6.235-1.764l.644-2.233a41 41 0 0 0 5.74.275 11.362 11.362 0 0 0 1.266-.138 3.044 3.044 0 0 0 .908-.283c.089-.048.138-.1.127-.108s.048-.048.082-.082l.127-.115.249-.234c.335-.3.651-.659.979-.986.644-.692 1.284-1.4 1.891-2.159s1.221-1.515 1.816-2.3 1.173-1.575 1.753-2.367 1.146-1.627 1.682-2.4z" transform="translate(-84.3 -87.304)" style="fill:#ffc3bd"/>
            <path data-name="Path 45212" d="M273.021 138.511c1.251 4.094-6.011 8.632-6.011 8.632l-4.72-6.011a26.327 26.327 0 0 1 3.908-5.468c3.213-3.496 5.87-.264 6.823 2.847z" transform="translate(-105.619 -82.561)" style="fill:#074089"/>
            <g data-name="Group 33875" style="opacity:.3">
                <path data-name="Path 45213" d="M273.021 138.511c1.251 4.094-6.011 8.632-6.011 8.632l-4.72-6.011a26.327 26.327 0 0 1 3.908-5.468c3.213-3.496 5.87-.264 6.823 2.847z" transform="translate(-105.619 -82.562)" style="fill:#fff"/>
            </g>
            <path data-name="Path 45214" d="m226.553 170.15-3.823-.7.4 3.305a2.744 2.744 0 0 0 3.428-.629z" transform="translate(-80.784 -104.724)" style="fill:#ffc3bd"/>
            <path data-name="Path 45215" d="m218.77 170.194.826 2.386 1.042.175-.4-3.305z" transform="translate(-78.298 -104.724)" style="fill:#ffc3bd"/>
        </g>
        <text data-name="No Target(s) has been set for this month" transform="translate(110.552 182.059)" style="fill:#b1b1b1;font-size:14px;font-family:Roboto-Regular,Roboto"><tspan x="-68.783" y="0">No Target(s) has been</tspan><tspan x="-55.176" y="18">set for this month</tspan></text>
    </g>
</svg>
