<svg width="190" height="142" viewBox="0 0 190 142" fill="none" xmlns="http://www.w3.org/2000/svg">
<g clip-path="url(#clip0_486_912)">
<path d="M189.687 124.79H0V124.886H189.687V124.79Z" fill="#EBEBEB"/>
<path d="M170.68 130.922H158.115V131.017H170.68V130.922Z" fill="#EBEBEB"/>
<path d="M125.656 131.958H122.359V132.053H125.656V131.958Z" fill="#EBEBEB"/>
<path d="M157.736 127.385H150.456V127.48H157.736V127.385Z" fill="#EBEBEB"/>
<path d="M36.2875 128.025H19.9023V128.12H36.2875V128.025Z" fill="#EBEBEB"/>
<path d="M42.0684 128.025H39.667V128.12H42.0684V128.025Z" fill="#EBEBEB"/>
<path d="M85.4156 129.633H49.876V129.729H85.4156V129.633Z" fill="#EBEBEB"/>
<path d="M89.9154 107.793H16.6584C15.4634 107.793 14.4922 106.817 14.4922 105.617V2.17606C14.4922 0.975605 15.4634 0 16.6584 0H89.9154C91.1104 0 92.0816 0.975605 92.0816 2.17606V105.617C92.0816 106.817 91.1104 107.793 89.9154 107.793ZM16.6584 0.0952739C15.5165 0.0952739 14.587 1.02896 14.587 2.17606V105.617C14.587 106.764 15.5165 107.698 16.6584 107.698H89.9154C91.0573 107.698 91.9867 106.764 91.9867 105.617V2.17606C91.9867 1.02896 91.0573 0.0952739 89.9154 0.0952739H16.6584Z" fill="#EBEBEB"/>
<path d="M171.974 107.793H98.717C97.522 107.793 96.5508 106.817 96.5508 105.617V2.17606C96.5508 0.975605 97.522 0 98.717 0H171.974C173.169 0 174.14 0.975605 174.14 2.17606V105.617C174.14 106.817 173.169 107.793 171.974 107.793ZM98.717 0.0952739C97.5751 0.0952739 96.6456 1.02896 96.6456 2.17606V105.617C96.6456 106.764 97.5751 107.698 98.717 107.698H171.974C173.116 107.698 174.045 106.764 174.045 105.617V2.17606C174.045 1.02896 173.116 0.0952739 171.974 0.0952739H98.717Z" fill="#EBEBEB"/>
<path d="M109.901 45.3923L162.171 45.3923V11.0061L109.901 11.0061V45.3923Z" fill="#E6E6E6"/>
<path d="M108.304 45.3923L161.424 45.3923V11.0061L108.304 11.0061V45.3923Z" fill="#F0F0F0"/>
<path d="M109.901 52.1375L162.171 52.1375V45.3882L109.901 45.3882V52.1375Z" fill="#E6E6E6"/>
<path d="M105.652 52.1375L158.771 52.1375V45.3882L105.652 45.3882V52.1375Z" fill="#F0F0F0"/>
<path d="M159.192 43.1513V13.2505L110.538 13.2505V43.1513H159.192Z" fill="#FAFAFA"/>
<path d="M148.221 43.1474L142.007 13.2505H132.311L138.525 43.1474H148.221Z" fill="white"/>
<path d="M158.16 40.9141C158.248 40.9141 158.32 40.8417 158.32 40.7541V14.7062C158.32 14.6186 158.248 14.5461 158.16 14.5461C158.073 14.5461 158.001 14.6186 158.001 14.7062V40.7541C158.001 40.8417 158.073 40.9141 158.16 40.9141Z" fill="#F0F0F0"/>
<path d="M136.442 43.1474L130.228 13.2505H126.445L132.663 43.1474H136.442Z" fill="white"/>
<path d="M110.822 43.1512V13.2505H110.538V43.1512H110.822Z" fill="#E6E6E6"/>
<path opacity="0.6" d="M107.776 16.631H160.05L160.255 14.1196H107.985L107.776 16.631Z" fill="#EBEBEB"/>
<path opacity="0.6" d="M107.776 20.7468H160.05L160.255 18.2354H107.985L107.776 20.7468Z" fill="#EBEBEB"/>
<path opacity="0.6" d="M107.776 24.8628H160.05L160.255 22.3552H107.985L107.776 24.8628Z" fill="#EBEBEB"/>
<path opacity="0.6" d="M107.776 28.9783H160.05L160.255 26.4707H107.985L107.776 28.9783Z" fill="#EBEBEB"/>
<path opacity="0.6" d="M107.776 33.0978H160.05L160.255 30.5864H107.985L107.776 33.0978Z" fill="#EBEBEB"/>
<path opacity="0.6" d="M107.776 37.2136H160.05L160.255 34.7021H107.985L107.776 37.2136Z" fill="#EBEBEB"/>
<path d="M154.666 99.7827H143.706V101.955H154.666V99.7827Z" fill="#E6E6E6"/>
<path d="M123.035 124.79H125.057V74.8401H123.035V124.79Z" fill="#E6E6E6"/>
<path d="M116.024 101.951H143.703V99.7784H116.024V101.951Z" fill="#F5F5F5"/>
<path d="M154.666 111.661H143.706V113.833H154.666V111.661Z" fill="#E6E6E6"/>
<path d="M116.024 113.829H143.703V111.657H116.024V113.829Z" fill="#F5F5F5"/>
<path d="M154.666 76.0283H143.706V78.2006H154.666V76.0283Z" fill="#E6E6E6"/>
<path d="M116.024 78.1975H143.703V76.0253H116.024V78.1975Z" fill="#F5F5F5"/>
<path d="M154.666 87.9036H143.706V90.0758H154.666V87.9036Z" fill="#E6E6E6"/>
<path d="M116.024 90.0757H143.703V87.9034H116.024V90.0757Z" fill="#F5F5F5"/>
<path d="M150.717 124.79H152.739V74.8401H150.717V124.79Z" fill="#E6E6E6"/>
<path d="M141.681 124.79H143.703V74.8401H141.681V124.79Z" fill="#F5F5F5"/>
<path d="M116.024 124.79H118.046V74.8401H116.024V124.79Z" fill="#F5F5F5"/>
<path d="M24.8036 124.79H45.5098L45.5098 84.4361H24.8036L24.8036 124.79Z" fill="#E6E6E6"/>
<path d="M30.3311 124.79H24.7998V119.219H36.1279L30.3311 124.79Z" fill="#FAFAFA"/>
<path d="M81.2538 124.79H101.96V84.4361H81.2538V124.79Z" fill="#E6E6E6"/>
<path d="M24.8038 122.873L86.084 122.873V84.4353H24.8038L24.8038 122.873Z" fill="#FAFAFA"/>
<path d="M80.5527 124.79H86.0801V119.219H74.7559L80.5527 124.79Z" fill="#FAFAFA"/>
<path d="M29.0904 108.376H81.793V98.7574H29.0904V108.376Z" fill="#F0F0F0"/>
<path d="M29.0904 120.052H81.793V110.434H29.0904V120.052Z" fill="#F0F0F0"/>
<path d="M71.777 99.7859H39.1092C38.1494 99.7859 37.3717 99.0046 37.3717 98.0405V97.9223H73.5107V98.0405C73.5107 99.0046 72.733 99.7859 71.7732 99.7859H71.777Z" fill="#FAFAFA"/>
<path d="M29.0904 96.7029H81.793V87.084H29.0904V96.7029Z" fill="#F0F0F0"/>
<path d="M71.777 88.1094H39.1092C38.1494 88.1094 37.3717 87.3281 37.3717 86.364V86.2458H73.5107V86.364C73.5107 87.3281 72.733 88.1094 71.7732 88.1094H71.777Z" fill="#FAFAFA"/>
<path d="M71.777 111.459H39.1092C38.1494 111.459 37.3717 110.678 37.3717 109.714V109.595H73.5107V109.714C73.5107 110.678 72.733 111.459 71.7732 111.459H71.777Z" fill="#FAFAFA"/>
<path d="M28.1001 45.3923L80.3701 45.3923V11.0061L28.1001 11.0061L28.1001 45.3923Z" fill="#E6E6E6"/>
<path d="M26.5071 45.3923L79.627 45.3923V11.0061L26.5071 11.0061L26.5071 45.3923Z" fill="#F0F0F0"/>
<path d="M28.1001 52.1375L80.3701 52.1375V45.3882L28.1001 45.3882V52.1375Z" fill="#E6E6E6"/>
<path d="M23.847 52.1375L76.9668 52.1375V45.3882L23.847 45.3882V52.1375Z" fill="#F0F0F0"/>
<path d="M77.3916 43.1512V13.2505L28.737 13.2505V43.1512H77.3916Z" fill="#FAFAFA"/>
<path d="M66.4207 43.1474L60.2065 13.2505H50.5098L56.7239 43.1474H66.4207Z" fill="white"/>
<path d="M76.3566 40.9141C76.4439 40.9141 76.5159 40.8417 76.5159 40.7541V14.7062C76.5159 14.6186 76.4439 14.5461 76.3566 14.5461C76.2693 14.5461 76.1973 14.6186 76.1973 14.7062V40.7541C76.1973 40.8417 76.2693 40.9141 76.3566 40.9141Z" fill="#F0F0F0"/>
<path d="M54.641 43.1474L48.4269 13.2505H44.6445L50.8587 43.1474H54.641Z" fill="white"/>
<path d="M29.0215 43.1512L29.0215 13.2505H28.737L28.737 43.1512H29.0215Z" fill="#E6E6E6"/>
<path opacity="0.6" d="M25.9756 16.631H78.2456L78.4505 14.1196H26.1804L25.9756 16.631Z" fill="#EBEBEB"/>
<path opacity="0.6" d="M25.9756 18.045H78.2456L78.4505 15.5374H26.1804L25.9756 18.045Z" fill="#EBEBEB"/>
<path opacity="0.6" d="M25.9756 19.4626H78.2456L78.4505 16.9512H26.1804L25.9756 19.4626Z" fill="#EBEBEB"/>
<path opacity="0.6" d="M25.9756 20.8765H78.2456L78.4505 18.3689H26.1804L25.9756 20.8765Z" fill="#EBEBEB"/>
<path opacity="0.6" d="M25.9756 22.2939H78.2456L78.4505 19.7825H26.1804L25.9756 22.2939Z" fill="#EBEBEB"/>
<path opacity="0.6" d="M25.9756 23.7116H78.2456L78.4505 21.2002H26.1804L25.9756 23.7116Z" fill="#EBEBEB"/>
<path d="M36.4276 83.197H38.2334V62.9647H36.4276V83.197Z" fill="#F5F5F5"/>
<path d="M36.6548 83.1855H37.167V62.9532H36.6548V83.1855Z" fill="#FAFAFA"/>
<path d="M37.379 83.1855H37.5801V62.9532H37.379V83.1855Z" fill="#FAFAFA"/>
<path d="M44.0186 84.4355H30.6419C30.6419 83.5019 31.3968 82.7435 32.3263 82.7435H42.3341C43.2636 82.7435 44.0186 83.5019 44.0186 84.4355Z" fill="#F0F0F0"/>
<path d="M34.0832 75.5296C34.3677 75.5296 34.603 75.2933 34.603 75.0075V61.7416C34.603 61.4558 34.3677 61.2195 34.0832 61.2195C33.7987 61.2195 33.5635 61.4558 33.5635 61.7416V75.0075C33.5635 75.2933 33.7987 75.5296 34.0832 75.5296Z" fill="#F0F0F0"/>
<path d="M29.2383 67.7775H45.4185L43.5558 56.4209H31.101L29.2383 67.7775Z" fill="#E0E0E0"/>
<path d="M94.8428 142.001C135.467 142.001 168.399 140.069 168.399 137.687C168.399 135.304 135.467 133.373 94.8428 133.373C54.2186 133.373 21.2861 135.304 21.2861 137.687C21.2861 140.069 54.2186 142.001 94.8428 142.001Z" fill="#F5F5F5"/>
<path d="M39.5005 56.1779L39.1221 56.2053L39.626 63.2336L40.0044 63.2062L39.5005 56.1779Z" fill="black"/>
<path d="M40.2612 66.8339L39.8828 66.8613L40.0725 69.5069L40.4509 69.4795L40.2612 66.8339Z" fill="black"/>
<path d="M128.118 99.1646H46.8711C45.0349 99.1646 43.4226 97.6555 43.2898 95.8072L39.2988 40.1177C39.166 38.2732 40.5621 36.7603 42.3983 36.7603H123.645C125.481 36.7603 127.093 38.2694 127.226 40.1177L131.217 95.8072C131.35 97.6517 129.954 99.1646 128.118 99.1646Z" fill="#407BFF"/>
<path d="M128.429 99.1646H47.1826C45.3464 99.1646 43.7341 97.6555 43.6013 95.8072L39.6103 40.1177C39.4775 38.2732 40.8736 36.7603 42.7098 36.7603H123.956C125.793 36.7603 127.405 38.2694 127.538 40.1177L131.529 95.8072C131.661 97.6517 130.265 99.1646 128.429 99.1646Z" fill="#407BFF"/>
<path d="M128.429 99.1646H47.1826C45.3464 99.1646 43.7341 97.6555 43.6013 95.8072L39.6103 40.1177C39.4775 38.2732 40.8736 36.7603 42.7098 36.7603H123.956C125.793 36.7603 127.405 38.2694 127.538 40.1177L131.529 95.8072C131.661 97.6517 130.265 99.1646 128.429 99.1646Z" fill="#898989"/>
<path d="M124.078 38.4409H42.8311C42.74 38.4409 42.649 38.4409 42.5579 38.4524C40.4827 38.6238 40.9039 41.7984 43.0018 41.7984H124.385C126.483 41.7984 126.449 38.6238 124.347 38.4524C124.256 38.4447 124.165 38.4409 124.074 38.4409H124.078Z" fill="black"/>
<path d="M44.9479 40.1172C44.9782 40.5441 44.6595 40.887 44.2384 40.887C43.8173 40.887 43.4493 40.5441 43.419 40.1172C43.3886 39.6942 43.7073 39.3474 44.1284 39.3474C44.5495 39.3474 44.9175 39.6904 44.9479 40.1172Z" fill="#FAFAFA"/>
<path d="M47.5543 40.1172C47.5847 40.5441 47.266 40.887 46.8449 40.887C46.4238 40.887 46.0558 40.5441 46.0254 40.1172C45.9951 39.6942 46.3138 39.3474 46.7349 39.3474C47.156 39.3474 47.524 39.6904 47.5543 40.1172Z" fill="#FAFAFA"/>
<path d="M50.1569 40.1172C50.1872 40.5441 49.8685 40.887 49.4474 40.887C49.0263 40.887 48.6583 40.5441 48.628 40.1172C48.5976 39.6942 48.9163 39.3474 49.3374 39.3474C49.7585 39.3474 50.1265 39.6904 50.1569 40.1172Z" fill="#FAFAFA"/>
<path d="M126.274 93.6041H48.5404C47.8727 93.6041 47.2884 93.0591 47.2429 92.3884L43.9613 46.5922C43.912 45.9214 44.4166 45.3765 45.0843 45.3765H122.818C123.486 45.3765 124.07 45.9214 124.115 46.5922L127.397 92.3884C127.446 93.0591 126.942 93.6041 126.274 93.6041Z" fill="white"/>
<path d="M93.5271 76.1619L92.26 58.5096L88.4283 56.1887H77.8779L79.312 76.1619H93.5271Z" fill="white"/>
<path d="M93.5267 76.3447H79.3116C79.2167 76.3447 79.1333 76.2685 79.1295 76.1732L77.6992 56.2038C77.6992 56.1542 77.7144 56.1009 77.7485 56.0628C77.7827 56.0247 77.832 56.0056 77.8813 56.0056H88.4279C88.462 56.0056 88.4924 56.0132 88.5227 56.0323L92.3582 58.3494C92.4113 58.3798 92.4417 58.4332 92.4455 58.4942L93.7126 76.1465C93.7126 76.1961 93.6974 76.2494 93.6632 76.2875C93.6291 76.3256 93.5798 76.3447 93.5305 76.3447H93.5267ZM79.4823 75.975H93.3294L92.085 58.6161L88.3748 56.3753H78.0748L79.4785 75.975H79.4823Z" fill="black"/>
<path d="M92.2594 58.5096L88.4277 56.1887L89.8352 59.2603L92.2594 58.5096Z" fill="#EBEBEB"/>
<path d="M89.8354 59.4465C89.7671 59.4465 89.6988 59.4046 89.6685 59.3398L88.261 56.2682C88.2269 56.1957 88.2458 56.1081 88.3065 56.0547C88.3672 56.0014 88.4545 55.9938 88.5228 56.0357L92.3582 58.3527C92.4189 58.3909 92.4531 58.4595 92.4455 58.5319C92.4379 58.6043 92.3848 58.6653 92.3165 58.6843L89.8885 59.4389C89.8885 59.4389 89.8506 59.4465 89.8354 59.4465ZM88.8452 56.6569L89.9378 59.0349L91.8195 58.4518L88.849 56.6569H88.8452Z" fill="black"/>
<path d="M83.8303 65.1866C83.8606 65.6325 83.5268 65.9945 83.0867 65.9945C82.6466 65.9945 82.2559 65.6325 82.2255 65.1866C82.1952 64.7407 82.529 64.3787 82.9691 64.3787C83.4092 64.3787 83.7999 64.7407 83.8303 65.1866Z" fill="black"/>
<path d="M89.0393 65.1866C89.0696 65.6325 88.7358 65.9945 88.2957 65.9945C87.8556 65.9945 87.4649 65.6325 87.4345 65.1866C87.4042 64.7407 87.738 64.3787 88.1781 64.3787C88.6182 64.3787 89.0089 64.7407 89.0393 65.1866Z" fill="black"/>
<path d="M90.5109 70.4181C90.4161 70.4181 90.3364 70.3457 90.3288 70.2467C90.234 68.9509 88.2119 67.8953 85.8143 67.8953C84.2285 67.8953 82.802 68.3679 82.0926 69.1339C81.7777 69.473 81.6336 69.8389 81.6601 70.2238C81.6677 70.3267 81.5918 70.4143 81.4894 70.422C81.387 70.4296 81.2997 70.3534 81.2921 70.2505C81.258 69.7665 81.4401 69.2939 81.8233 68.8823C82.5972 68.0477 84.1261 67.5256 85.8143 67.5256C88.4433 67.5256 90.5868 68.7108 90.6968 70.22C90.7044 70.3229 90.6285 70.4105 90.5261 70.4181C90.5223 70.4181 90.5185 70.4181 90.5109 70.4181Z" fill="black"/>
<path d="M80.8706 63.5516C80.8251 63.5516 80.7796 63.5364 80.7454 63.5021C80.6696 63.4335 80.6658 63.3153 80.7341 63.2429L81.5383 62.3702C81.6066 62.294 81.7242 62.2902 81.7963 62.3588C81.8722 62.4274 81.876 62.5455 81.8077 62.6179L81.0034 63.4907C80.9655 63.5288 80.9162 63.5516 80.8668 63.5516H80.8706Z" fill="black"/>
<path d="M90.1316 63.5511C90.0861 63.5511 90.0405 63.5358 90.0064 63.5015L89.0769 62.6288C89.0011 62.5602 88.9973 62.4421 89.0693 62.3697C89.1376 62.2935 89.2552 62.2897 89.3273 62.3621L90.2568 63.2348C90.3327 63.3034 90.3365 63.4215 90.2644 63.4939C90.2264 63.532 90.1809 63.5511 90.1316 63.5511Z" fill="black"/>
<path d="M76.7314 80.1055H77.5888L78.8256 81.7556L78.708 80.1055H79.573L79.7854 83.0894H78.9204L77.6913 81.4507L77.8089 83.0894H76.9439L76.7314 80.1055Z" fill="black"/>
<path d="M80.1732 81.6C80.1391 81.1122 80.2453 80.7349 80.4957 80.4605C80.7461 80.1861 81.1141 80.0527 81.5959 80.0527C82.0777 80.0527 82.4798 80.1861 82.7681 80.4529C83.0564 80.7197 83.2158 81.0931 83.2499 81.5733C83.2765 81.9239 83.2385 82.2097 83.1361 82.4308C83.0337 82.6556 82.8781 82.8271 82.6657 82.9529C82.4532 83.0786 82.1839 83.1396 81.8538 83.1396C81.5238 83.1396 81.2392 83.0863 81.0116 82.9796C80.784 82.8728 80.5943 82.7013 80.4426 82.4689C80.2908 82.2364 80.1998 81.9468 80.177 81.5962L80.1732 81.6ZM81.0913 81.6038C81.1141 81.9049 81.1823 82.1221 81.3037 82.2517C81.4251 82.385 81.5807 82.4498 81.7742 82.4498C81.9676 82.4498 82.1194 82.385 82.218 82.2555C82.3167 82.1259 82.3546 81.8934 82.3318 81.5619C82.3129 81.2799 82.2408 81.0741 82.1194 80.9445C81.998 80.8149 81.8387 80.7501 81.6452 80.7501C81.4517 80.7501 81.3151 80.8149 81.2127 80.9483C81.1103 81.0817 81.0685 81.2989 81.0913 81.6038Z" fill="black"/>
<path d="M85.036 80.1055H86.4018C86.6711 80.1055 86.8912 80.1436 87.0619 80.216C87.2326 80.2884 87.3768 80.3951 87.4944 80.5323C87.612 80.6695 87.703 80.8296 87.7637 81.0125C87.8244 81.1954 87.8623 81.386 87.8775 81.5917C87.9003 81.9119 87.8813 82.1596 87.8206 82.3349C87.7599 82.5102 87.6727 82.6588 87.5513 82.777C87.4299 82.8951 87.3009 82.9751 87.1529 83.0132C86.9556 83.0666 86.7736 83.0933 86.6104 83.0933H85.2447L85.0322 80.1093L85.036 80.1055ZM86.0034 80.78L86.121 82.4111H86.3449C86.5383 82.4111 86.6711 82.3882 86.7508 82.3463C86.8305 82.3044 86.8874 82.2282 86.9253 82.1215C86.9632 82.0148 86.9746 81.8433 86.9557 81.6032C86.9329 81.2869 86.8646 81.0696 86.7546 80.9553C86.6446 80.8372 86.4701 80.78 86.231 80.78H86.0034Z" fill="black"/>
<path d="M90.0825 82.5978H89.0393L88.9292 83.0894H87.9922L88.8951 80.1055H89.8966L91.2282 83.0894H90.2684L90.0863 82.5978H90.0825ZM89.8473 81.9538L89.4414 80.8791L89.1948 81.9538H89.8473Z" fill="black"/>
<path d="M90.8105 80.1055H93.6027L93.6558 80.841H92.7188L92.8781 83.0894H91.96L91.8007 80.841H90.8637L90.8105 80.1055Z" fill="black"/>
<path d="M95.7427 82.5978H94.6994L94.5894 83.0894H93.6523L94.5553 80.1055H95.5568L96.8884 83.0894H95.9286L95.7465 82.5978H95.7427ZM95.5075 81.9538L95.1015 80.8791L94.855 81.9538H95.5075Z" fill="black"/>
<path d="M134.181 45.019C134.518 44.8475 134.924 44.6265 135.296 44.4207C135.675 44.2111 136.055 43.99 136.426 43.7652C137.17 43.3041 137.917 42.8506 138.631 42.3475C140.065 41.3528 141.411 40.2515 142.618 39.051C142.777 38.9062 142.91 38.7423 143.058 38.5899L143.274 38.3574L143.384 38.2393L143.437 38.1821C143.437 38.1821 143.449 38.1707 143.441 38.1821L143.43 38.2012C143.377 38.3041 143.422 38.2736 143.441 38.1745C143.468 38.0792 143.487 37.9268 143.494 37.7591C143.517 37.0655 143.384 36.1928 143.217 35.3506C142.88 33.6395 142.367 31.8826 141.863 30.1601L143.339 29.5122C144.26 31.17 145.031 32.8582 145.657 34.6951C145.956 35.625 146.229 36.5587 146.309 37.7019C146.324 37.9954 146.332 38.3003 146.279 38.6585C146.222 39.0091 146.135 39.4321 145.816 39.9085L145.751 39.9961L145.702 40.0609L145.645 40.1333L145.528 40.2743L145.292 40.5602C145.133 40.7469 144.985 40.9489 144.814 41.1242C143.506 42.5838 142.053 43.8719 140.497 44.9923C139.723 45.5601 138.934 46.0975 138.115 46.5891C137.705 46.8368 137.291 47.0769 136.87 47.3094C136.445 47.5456 136.039 47.7553 135.554 47.9839L134.177 45.0266L134.181 45.019Z" fill="#FFB573"/>
<path d="M130.804 134.615C131.096 134.615 131.418 134.554 131.642 134.5C131.672 134.493 131.695 134.47 131.699 134.439C131.703 134.409 131.691 134.378 131.665 134.363C131.555 134.291 130.591 133.666 130.219 133.833C130.163 133.86 130.087 133.917 130.071 134.047C130.049 134.214 130.09 134.352 130.197 134.447C130.333 134.573 130.557 134.615 130.804 134.615ZM131.43 134.394C130.876 134.504 130.462 134.485 130.299 134.336C130.231 134.275 130.204 134.184 130.223 134.066C130.231 134.001 130.261 133.982 130.288 133.971C130.481 133.883 131.039 134.154 131.433 134.39L131.43 134.394Z" fill="black"/>
<path d="M131.628 134.5C131.628 134.5 131.654 134.5 131.666 134.489C131.688 134.474 131.703 134.451 131.703 134.424C131.703 134.386 131.7 133.467 131.354 133.159C131.263 133.079 131.157 133.044 131.036 133.056C130.846 133.079 130.797 133.197 130.782 133.265C130.709 133.624 131.286 134.313 131.59 134.485C131.601 134.493 131.612 134.496 131.628 134.496V134.5ZM131.085 133.204C131.146 133.204 131.203 133.227 131.252 133.269C131.457 133.452 131.529 133.97 131.548 134.275C131.244 134.031 130.884 133.517 130.93 133.296C130.937 133.262 130.956 133.216 131.055 133.204C131.066 133.204 131.077 133.204 131.089 133.204H131.085Z" fill="black"/>
<path d="M131.347 35.484C130.979 37.3781 130.197 41.2157 131.517 42.4771C131.517 42.4771 131.002 44.3979 127.5 44.3979C123.645 44.3979 125.66 42.4771 125.66 42.4771C127.762 41.9741 127.709 40.404 127.341 38.933L131.347 35.4802V35.484Z" fill="#FFB573"/>
<path d="M124.919 43.2436C124.316 43.3275 124.828 41.7536 125.075 41.5897C125.644 41.2124 132.985 40.6789 132.939 41.5744C132.909 41.9593 132.731 42.7101 132.408 42.9654C132.086 43.2208 130.2 42.451 124.923 43.2436H124.919Z" fill="#DE5A38"/>
<path d="M126.119 42.7139C125.637 42.8778 125.683 41.2924 125.85 41.1019C126.229 40.6598 132.17 39.1278 132.348 39.9929C132.416 40.3664 132.451 41.1171 132.246 41.4068C132.041 41.6964 130.296 41.2162 126.123 42.7139H126.119Z" fill="#DE5A38"/>
<path d="M123.907 32.0731C123.862 32.0731 123.812 32.0578 123.782 32.0197C123.357 31.4976 122.803 31.551 122.799 31.551C122.716 31.5586 122.644 31.5014 122.633 31.4176C122.625 31.3338 122.682 31.2614 122.765 31.2499C122.796 31.2499 123.486 31.1813 124.013 31.8254C124.067 31.8902 124.055 31.9854 123.991 32.0388C123.964 32.0617 123.934 32.0693 123.903 32.0731H123.907Z" fill="#263238"/>
<path d="M123.171 33.9373C123.171 33.9373 122.845 35.0844 122.424 35.6636C122.792 35.9456 123.349 35.7436 123.349 35.7436L123.171 33.9373Z" fill="#FFB573"/>
<path d="M123.357 33.4716C123.383 33.7269 123.266 33.948 123.099 33.967C122.932 33.9823 122.776 33.7879 122.75 33.5326C122.723 33.2772 122.841 33.0562 123.008 33.0372C123.175 33.0181 123.33 33.2163 123.357 33.4716Z" fill="#263238"/>
<path d="M123.084 33.0454L122.454 32.9272C122.454 32.9272 122.815 33.3769 123.084 33.0454Z" fill="#263238"/>
<path d="M135.323 134.424H132.144L132.394 127.035H135.573L135.323 134.424Z" fill="#FFB573"/>
<path d="M131.893 134.055H135.463C135.592 134.055 135.698 134.147 135.717 134.272L136.123 137.111C136.165 137.405 135.914 137.683 135.615 137.679C134.37 137.656 133.771 137.584 132.2 137.584C131.233 137.584 129.821 137.683 128.49 137.683C127.158 137.683 127.086 136.357 127.64 136.239C130.129 135.701 130.523 134.958 131.362 134.249C131.514 134.124 131.703 134.051 131.893 134.051V134.055Z" fill="#263238"/>
<g opacity="0.2">
<path d="M135.573 127.034H132.394L132.265 130.845H135.444L135.573 127.034Z" fill="black"/>
</g>
<path d="M122.678 46.91C120.713 46.1363 118.835 45.2941 116.968 44.3376C115.102 43.3772 113.269 42.3597 111.505 40.9954C111.065 40.6486 110.633 40.2675 110.208 39.8254C110.101 39.7111 109.995 39.6044 109.893 39.4748C109.783 39.3376 109.699 39.2576 109.559 39.0442C109.301 38.6745 109.104 38.1753 109.051 37.6684C109.001 37.1615 109.092 36.6737 109.237 36.2888C109.381 35.8963 109.57 35.5724 109.771 35.2942C110.17 34.7378 110.614 34.3224 111.057 33.9527C111.945 33.2134 112.886 32.6761 113.827 32.173C114.297 31.9215 114.775 31.6966 115.261 31.487C115.75 31.2736 116.225 31.0793 116.744 30.9001L117.42 32.3674C115.766 33.4154 114.051 34.5663 112.791 35.8582C112.484 36.1783 112.218 36.5137 112.048 36.8071C111.866 37.1082 111.869 37.333 111.9 37.314C111.915 37.314 111.907 37.3064 111.953 37.3521L112.105 37.516C112.161 37.5846 112.241 37.6532 112.313 37.7256C112.613 38.0038 112.962 38.2858 113.338 38.5525C114.089 39.0899 114.92 39.5929 115.777 40.0655C116.63 40.5419 117.511 40.9992 118.41 41.4336C120.197 42.2949 122.052 43.1219 123.869 43.8764L122.681 46.9138L122.678 46.91Z" fill="#FFB573"/>
<path d="M118.353 31.3268L118.88 30.1835L116.49 29.3489C116.49 29.3489 115.746 31.5973 116.634 32.6377C117.389 32.5158 118.034 32.0242 118.353 31.3268Z" fill="#FFB573"/>
<path d="M118.876 27.7064L116.968 27.1538L116.49 29.3489L118.876 30.1835V27.7064Z" fill="#FFB573"/>
<path d="M143.536 30.2937L143.813 27.6184L141.351 28.1977C141.351 28.1977 141.313 30.7053 142.618 31.1054L143.536 30.2937Z" fill="#FFB573"/>
<path d="M142.629 25.7434L141.024 26.498L141.354 28.1977L143.813 27.6184L142.629 25.7434Z" fill="#FFB573"/>
<path d="M131.847 31.7461C131.965 34.913 132.079 36.2507 130.656 38.0228C128.513 40.6866 124.617 40.1378 123.562 37.07C122.613 34.3109 122.583 29.5967 125.527 28.0419C128.429 26.5099 131.734 28.583 131.847 31.7499V31.7461Z" fill="#FFB573"/>
<path d="M130.474 38.0147C133.569 36.6732 135.603 33.8417 134.742 29.4133C133.918 25.1756 131.073 24.7602 129.897 25.6367C128.721 26.517 125.788 25.206 124.032 26.6923C120.986 29.2685 123.865 32.0467 125.367 33.693C126.263 35.5452 127.439 39.3333 130.474 38.0147Z" fill="#263238"/>
<path d="M129.187 28.651C130.231 30.1678 132.234 30.5984 133.66 29.6076C135.087 28.6167 135.398 26.5855 134.351 25.0649C133.307 23.5481 131.304 23.1175 129.878 24.1084C128.452 25.0992 128.14 27.1304 129.187 28.651Z" fill="#DE5A38"/>
<path d="M129.992 25.9338C129.545 23.3805 131.95 21.414 135.167 22.3629C138.38 23.3157 136.681 26.1777 136.02 28.4643C135.36 30.7508 137.09 32.9269 137.815 31.1891C138.539 29.4475 137.322 28.9102 137.322 28.9102C137.322 28.9102 140.736 29.7981 137.564 33.6662C134.393 37.5305 131.521 33.2623 132.299 30.7432C132.925 28.7082 130.413 28.3461 129.992 25.9338Z" fill="#263238"/>
<path d="M126.779 26.8978C125.311 26.128 122.826 25.5068 121.411 27.8963C120.743 29.0281 121.001 30.5601 121.001 30.5601L125.322 30.8498L126.779 26.8978Z" fill="#263238"/>
<path d="M120.493 29.8096C120.493 29.8096 120.489 29.8096 120.485 29.8096C120.432 29.8096 120.394 29.7601 120.398 29.7105C120.402 29.6457 120.508 28.1137 121.426 27.1496C123.653 24.8249 126.263 26.7532 127.01 27.4011C127.048 27.4354 127.056 27.4964 127.022 27.5345C126.987 27.5726 126.927 27.5802 126.889 27.5459C126.176 26.9285 123.676 25.0802 121.566 27.283C120.694 28.1938 120.591 29.7067 120.587 29.722C120.587 29.7715 120.542 29.8096 120.493 29.8096Z" fill="#263238"/>
<path d="M125.895 33.5674C125.892 34.1848 125.615 34.7869 125.266 35.1985C124.742 35.8159 124.139 35.511 124.002 34.8289C123.877 34.2153 124.002 33.152 124.662 32.7824C125.315 32.4165 125.895 32.8662 125.892 33.5712L125.895 33.5674Z" fill="#FFB573"/>
<path d="M125.212 62.5646C125.212 62.5646 125.413 84.7215 127.329 97.069C128.873 107.042 131.733 130.106 131.733 130.106H136.066C136.066 130.106 136.491 107.843 135.705 97.976C133.721 73.0142 138.843 68.3496 134.708 62.5608H125.208L125.212 62.5646Z" fill="#263238"/>
<path opacity="0.1" d="M125.212 62.5646C125.212 62.5646 125.413 84.7215 127.329 97.069C128.873 107.042 131.733 130.106 131.733 130.106H136.066C136.066 130.106 136.491 107.843 135.705 97.976C133.721 73.0142 138.843 68.3496 134.708 62.5608H125.208L125.212 62.5646Z" fill="white"/>
<path opacity="0.3" d="M127.492 72.6183C129.014 79.3065 127.8 89.84 126.969 94.4779C126.089 87.4353 125.645 78.308 125.425 71.6198C126.21 70.3393 126.954 70.2555 127.492 72.6183Z" fill="black"/>
<path d="M131.142 130.193H136.662L136.95 128.25L131.111 128.048L131.142 130.193Z" fill="#898989"/>
<path d="M132.716 43.8611C133.235 42.8245 136.024 42.1729 137.553 42.1729L138.695 47.2643C138.695 47.2643 135.656 51.7955 134.392 51.3153C132.898 50.7475 131.608 46.0791 132.719 43.8573L132.716 43.8611Z" fill="#407BFF"/>
<path d="M132.716 43.8611C133.235 42.8245 136.024 42.1729 137.553 42.1729L138.695 47.2643C138.695 47.2643 135.656 51.7955 134.392 51.3153C132.898 50.7475 131.608 46.0791 132.719 43.8573L132.716 43.8611Z" fill="#DE5A38"/>
<path d="M129.499 128.947C129.515 128.924 129.515 128.898 129.499 128.871C129.484 128.844 129.454 128.825 129.423 128.833C129.264 128.856 127.86 129.081 127.671 129.485C127.633 129.561 127.64 129.645 127.686 129.721C127.762 129.851 127.872 129.923 128.012 129.938C128.471 129.988 129.135 129.344 129.492 128.959C129.492 128.959 129.499 128.951 129.499 128.947ZM127.815 129.534C127.944 129.321 128.672 129.123 129.226 129.02C128.725 129.53 128.285 129.816 128.027 129.79C127.936 129.782 127.868 129.732 127.815 129.645C127.796 129.61 127.792 129.58 127.807 129.549C127.807 129.546 127.811 129.538 127.815 129.534Z" fill="black"/>
<path d="M129.499 128.948C129.499 128.948 129.503 128.937 129.507 128.933C129.514 128.906 129.507 128.88 129.492 128.861C129.469 128.834 128.904 128.182 128.388 128.148C128.228 128.136 128.088 128.186 127.974 128.289C127.819 128.43 127.83 128.552 127.872 128.628C128.035 128.956 129.044 129.07 129.454 128.982C129.473 128.979 129.492 128.967 129.503 128.948H129.499ZM128.016 128.468C128.027 128.449 128.046 128.426 128.077 128.399C128.164 128.323 128.262 128.289 128.38 128.296C128.721 128.319 129.108 128.674 129.283 128.853C128.831 128.891 128.103 128.754 128.004 128.556C127.997 128.544 127.985 128.514 128.016 128.464V128.468Z" fill="black"/>
<path d="M132.811 127.595L129.905 128.894L128.611 126.184L126.919 122.64L126.718 122.225L129.624 120.929L129.848 121.39L131.486 124.824L132.811 127.595Z" fill="#FFB573"/>
<path opacity="0.2" d="M131.487 124.824L128.611 126.185L126.919 122.641L129.848 121.391L131.487 124.824Z" fill="black"/>
<path d="M121.806 62.5646C121.806 62.5646 112.522 85.7466 115.038 96.665C117.314 106.532 127.367 125.217 127.367 125.217L131.256 123.254C131.256 123.254 125.038 100.697 124.363 95.7961C123.05 86.2611 131.487 72.8046 131.487 62.5608H121.806V62.5646Z" fill="#263238"/>
<path opacity="0.1" d="M121.806 62.5646C121.806 62.5646 112.522 85.7466 115.038 96.665C117.314 106.532 127.367 125.217 127.367 125.217L131.256 123.254C131.256 123.254 125.038 100.697 124.363 95.7961C123.05 86.2611 131.487 72.8046 131.487 62.5608H121.806V62.5646Z" fill="white"/>
<path d="M129.388 128.487L132.276 126.375C132.382 126.299 132.518 126.311 132.609 126.402L134.601 128.456C134.806 128.67 134.768 129.043 134.521 129.214C133.501 129.935 132.974 130.228 131.706 131.154C130.925 131.726 129.37 132.987 128.292 133.776C127.237 134.546 126.38 133.536 126.759 133.109C128.459 131.204 128.816 130.022 129.077 128.955C129.127 128.761 129.237 128.593 129.392 128.483L129.388 128.487Z" fill="#263238"/>
<path d="M127.117 126.044L132.136 123.739L131.495 121.685L126.119 124.146L127.117 126.044Z" fill="#898989"/>
<path d="M124.267 43.6014C123.85 42.5191 120.223 41.33 118.406 40.9185L117.605 46.9283C117.605 46.9283 120.576 51.2195 121.881 50.8612C123.421 50.442 125.159 45.9222 124.267 43.6014Z" fill="#407BFF"/>
<path d="M124.267 43.6014C123.85 42.5191 120.223 41.33 118.406 40.9185L117.605 46.9283C117.605 46.9283 120.576 51.2195 121.881 50.8612C123.421 50.442 125.159 45.9222 124.267 43.6014Z" fill="#DE5A38"/>
<path d="M120.288 43.2964C120.288 43.2964 118.774 43.8337 121.806 62.5645H134.712C134.496 57.2864 134.488 54.0356 136.999 43.2049C136.999 43.2049 134.295 42.6142 131.518 42.4808C129.348 42.3741 127.568 42.3055 125.656 42.4808C123.141 42.7133 120.284 43.3002 120.284 43.3002L120.288 43.2964Z" fill="#407BFF"/>
<path d="M120.288 43.2964C120.288 43.2964 118.774 43.8337 121.806 62.5645H134.712C134.496 57.2864 134.488 54.0356 136.999 43.2049C136.999 43.2049 134.295 42.6142 131.518 42.4808C129.348 42.3741 127.568 42.3055 125.656 42.4808C123.141 42.7133 120.284 43.3002 120.284 43.3002L120.288 43.2964Z" fill="#DE5A38"/>
<path d="M134.905 61.8023L135.485 62.9646C135.531 63.0561 135.424 63.1476 135.276 63.1476H121.74C121.623 63.1476 121.528 63.0904 121.52 63.018L121.403 61.8557C121.395 61.7756 121.494 61.707 121.623 61.707H134.692C134.787 61.707 134.874 61.7451 134.901 61.8061L134.905 61.8023Z" fill="#407BFF"/>
<path d="M134.905 61.8023L135.485 62.9646C135.531 63.0561 135.424 63.1476 135.276 63.1476H121.74C121.623 63.1476 121.528 63.0904 121.52 63.018L121.403 61.8557C121.395 61.7756 121.494 61.707 121.623 61.707H134.692C134.787 61.707 134.874 61.7451 134.901 61.8061L134.905 61.8023Z" fill="white"/>
<path d="M133.149 63.2695H133.498C133.566 63.2695 133.619 63.2352 133.615 63.1895L133.452 61.6804C133.448 61.6346 133.388 61.6003 133.315 61.6003H132.966C132.898 61.6003 132.845 61.6346 132.849 61.6804L133.012 63.1895C133.016 63.2352 133.076 63.2695 133.149 63.2695Z" fill="#263238"/>
<path d="M124.666 63.2695H125.015C125.083 63.2695 125.137 63.2352 125.133 63.1895L124.97 61.6804C124.966 61.6346 124.905 61.6003 124.833 61.6003H124.484C124.416 61.6003 124.363 61.6346 124.366 61.6804L124.53 63.1895C124.533 63.2352 124.594 63.2695 124.666 63.2695Z" fill="#263238"/>
</g>
<defs>
<clipPath id="clip0_486_912">
<rect width="189.687" height="142" fill="white"/>
</clipPath>
</defs>
</svg>
