<svg xmlns="http://www.w3.org/2000/svg" width="16.108" height="16.107" viewBox="0 0 16.108 16.107">
  <g id="noun-close-1310882" transform="translate(-218.098 -148.104)">
    <path id="Path_46441" data-name="Path 46441" d="M233.855,150.164a1.2,1.2,0,0,0,0-1.69l-.02-.02a1.194,1.194,0,0,0-1.69,0L227,153.6a1.2,1.2,0,0,1-1.691,0l-5.148-5.148a1.2,1.2,0,0,0-1.69,0l-.02.02a1.194,1.194,0,0,0,0,1.69l5.148,5.148a1.2,1.2,0,0,1,0,1.691l-5.148,5.148a1.2,1.2,0,0,0,0,1.69l.02.02a1.194,1.194,0,0,0,1.69,0l5.148-5.148a1.2,1.2,0,0,1,1.691,0l5.148,5.148a1.2,1.2,0,0,0,1.69,0l.02-.02a1.194,1.194,0,0,0,0-1.69L228.707,157a1.2,1.2,0,0,1,0-1.691Z" transform="translate(0 0)" fill="#282828" fill-rule="evenodd"/>
  </g>
</svg>
