<svg id="outgoing_mail_black_24dp" xmlns="http://www.w3.org/2000/svg" width="17.682" height="17.682" viewBox="0 0 17.682 17.682">
  <g id="Group_70560" data-name="Group 70560">
    <rect id="Rectangle_36417" data-name="Rectangle 36417" width="17.682" height="17.682" fill="none"/>
  </g>
  <g id="Group_70562" data-name="Group 70562" transform="translate(1.473 3.684)">
    <g id="Group_70561" data-name="Group 70561">
      <path id="Path_166321" data-name="Path 166321" d="M14.156,9.42a3,3,0,0,1,.368.022V6.378A1.38,1.38,0,0,0,13.147,5H3.378A1.38,1.38,0,0,0,2,6.378v7.559a1.38,1.38,0,0,0,1.378,1.378h7.168a4.053,4.053,0,0,1,3.61-5.894ZM8.189,10.894,3.473,8.087V6.473h.169L8.2,9.185l4.664-2.711h.192V8.065Z" transform="translate(-2 -5)" fill="#fff"/>
      <path id="Path_166322" data-name="Path 166322" d="M17.947,13l-1.039,1.039,1.164,1.171H15v1.473h3.072l-1.164,1.171,1.039,1.039,2.947-2.947Z" transform="translate(-5.422 -7.106)" fill="#fff"/>
    </g>
  </g>
</svg>
