<svg id="outgoing_mail_black_24dp" xmlns="http://www.w3.org/2000/svg" width="24" height="24" viewBox="0 0 24 24">
  <g id="Group_70560" data-name="Group 70560">
    <rect id="Rectangle_36417" data-name="Rectangle 36417" width="24" height="24" fill="none"/>
  </g>
  <g id="Group_70562" data-name="Group 70562">
    <g id="Group_70561" data-name="Group 70561">
      <path id="Path_166321" data-name="Path 166321" d="M18.5,11a4.07,4.07,0,0,1,.5.03V6.87A1.874,1.874,0,0,0,17.13,5H3.87A1.874,1.874,0,0,0,2,6.87V17.13A1.874,1.874,0,0,0,3.87,19H13.6a5.5,5.5,0,0,1,4.9-8Zm-8.1,2L4,9.19V7h.23l6.18,3.68L16.74,7H17V9.16Z" fill="#de5a38"/>
      <path id="Path_166322" data-name="Path 166322" d="M19,13l-1.41,1.41L19.17,16H15v2h4.17l-1.58,1.59L19,21l4-4Z" fill="#de5a38"/>
    </g>
  </g>
</svg>
