<svg xmlns="http://www.w3.org/2000/svg" width="32" height="27" viewBox="0 0 32 27">
  <g id="Group_75948" data-name="Group 75948" transform="translate(-18026 -555.392)">
    <g id="Ellipse_2433" data-name="Ellipse 2433" transform="translate(18026 558.392)" fill="none" stroke="#404040" stroke-width="1">
      <circle cx="12" cy="12" r="12" stroke="none"/>
      <circle cx="12" cy="12" r="11.5" fill="none"/>
    </g>
    <g id="Ellipse_2434" data-name="Ellipse 2434" transform="translate(18044 555.392)" fill="#fff" stroke="#ff9615" stroke-width="1">
      <circle cx="7" cy="7" r="7" stroke="none"/>
      <circle cx="7" cy="7" r="6.5" fill="none"/>
    </g>
    <path id="Path_176613" data-name="Path 176613" d="M93.766,102.418H90.1a.5.5,0,0,1-.542-.336.462.462,0,0,1,.382-.6,3.16,3.16,0,0,1,.329-.008l3.417,0c.02,0,.041,0,.08-.009a1.144,1.144,0,0,0-.015-.166,2.743,2.743,0,0,0-2.663-2.11c-.36,0-.721,0-1.082,0a.458.458,0,0,1-.451-.325.427.427,0,0,1,.146-.491.7.7,0,0,1,.361-.113c.684-.01,1.369,0,2.053,0,1.228,0,2.456,0,3.684,0a.815.815,0,0,1,.384.094.443.443,0,0,1,.172.511.468.468,0,0,1-.468.325c-.585,0-1.17,0-1.756,0h-.557a.88.88,0,0,0,.071.1,3.606,3.606,0,0,1,1.054,2.019c.022.133.067.18.209.173.313-.015.627-.012.94-.007a.476.476,0,0,1,.526.476.494.494,0,0,1-.54.468c-.329,0-.658,0-.988,0-.1,0-.133.031-.15.129a3.653,3.653,0,0,1-3.336,3.024c-.071.005-.142.014-.213.02l-.041.054a1.48,1.48,0,0,1,.2.148q1.648,1.72,3.292,3.445a.466.466,0,0,1,.106.6.455.455,0,0,1-.724.107c-.14-.124-.264-.268-.394-.4l-3.79-3.967-.1-.1a.45.45,0,0,1-.109-.517.468.468,0,0,1,.455-.3c.345,0,.69,0,1.034,0a2.751,2.751,0,0,0,2.679-2.134.807.807,0,0,0,.007-.095" transform="translate(17945.438 466.227)" fill="#404040" stroke="#404040" stroke-width="0.5"/>
    <path id="Path_176616" data-name="Path 176616" d="M179.194,28.172c.066.045.116.083.17.116.129.077.263.146.388.228a.965.965,0,0,1,.466.836q.01.648,0,1.3c0,.125.032.169.158.157a2.565,2.565,0,0,1,.352,0,.423.423,0,0,1,.016.846c-.037,0-.075,0-.113,0q-2.3,0-4.608,0a.467.467,0,0,1-.46-.237.42.42,0,0,1,.358-.612,4.043,4.043,0,0,1,.408,0c.094,0,.12-.032.119-.124-.005-.423,0-.845-.005-1.268a1.007,1.007,0,0,1,.537-.939l.492-.282a.991.991,0,0,0-.1-.076c-.137-.081-.276-.16-.414-.24a.985.985,0,0,1-.517-.893q-.008-.641,0-1.282c0-.111-.025-.153-.141-.142a2.77,2.77,0,0,1-.338,0,.44.44,0,0,1-.454-.423.435.435,0,0,1,.464-.426q2.121,0,4.242,0c.16,0,.319,0,.479,0a.425.425,0,1,1,.005.849,3.133,3.133,0,0,1-.352,0c-.11-.01-.134.033-.133.136.006.413,0,.827.006,1.24a1.014,1.014,0,0,1-.537.953l-.491.285m-.865,2.63v0c.305,0,.61,0,.916,0,.105,0,.136-.033.134-.138q-.01-.627,0-1.253a.214.214,0,0,0-.121-.214c-.282-.159-.559-.326-.843-.481a.2.2,0,0,0-.165,0c-.275.151-.543.316-.818.468a.249.249,0,0,0-.144.248q.007.62,0,1.24c0,.1.029.131.129.129.305-.006.61,0,.915,0m.008-5.242h0c-.31,0-.62,0-.929,0-.108,0-.123.041-.122.132q.006.627,0,1.253a.221.221,0,0,0,.12.218c.281.159.559.326.842.483a.185.185,0,0,0,.153,0c.3-.165.6-.336.888-.514a.219.219,0,0,0,.082-.16c.006-.432,0-.864,0-1.3,0-.1-.034-.119-.123-.117-.3,0-.61,0-.915,0" transform="translate(17872.67 534.108)" fill="#ff9615"/>
  </g>
</svg>
