<svg xmlns="http://www.w3.org/2000/svg" width="27" height="27" viewBox="0 0 27 27">
  <g id="Group_75962" data-name="Group 75962" transform="translate(-19238 -585)">
    <g id="Ellipse_2435" data-name="Ellipse 2435" transform="translate(19238 585)" fill="none" stroke="#404040" stroke-width="1">
      <circle cx="13.5" cy="13.5" r="13.5" stroke="none"/>
      <circle cx="13.5" cy="13.5" r="13" fill="none"/>
    </g>
    <g id="Group_75252" data-name="Group 75252" transform="translate(19244.098 591.097)">
      <path id="Path_176636" data-name="Path 176636" d="M16.056,61.732c.159-.078.3-.156.441-.215a3.846,3.846,0,0,1,1.817-.265,3.32,3.32,0,0,1,1.552.5,4.014,4.014,0,0,1,.452.351.8.8,0,0,0,.552.216c.875,0,1.751,0,2.626,0a1.217,1.217,0,0,1,.932.347c.057.059.114.148.181.159s.145-.06.216-.1c.462-.248.927-.492,1.384-.748a1.18,1.18,0,0,1,1.107-.114,1.026,1.026,0,0,1,.637.913,1.01,1.01,0,0,1-.494,1c-.569.348-1.142.689-1.714,1.033-1.2.719-2.386,1.445-3.589,2.152a1.772,1.772,0,0,1-1.533.11c-1.1-.382-2.19-.776-3.287-1.158-.329-.115-.662-.223-1-.307-.3-.074-.3-.057-.3.241,0,.175,0,.35-.006.525-.01.2-.05.256-.246.265-.373.017-.747.012-1.12,0-.152-.005-.213-.1-.215-.258a.208.208,0,0,1,.214-.232c.243-.017.488-.017.732-.012.107,0,.132-.039.132-.135q-.009-2.052-.012-4.1c0-.094-.029-.127-.127-.125-.346.006-.692,0-1.038,0a1.543,1.543,0,0,1-.254-.025.223.223,0,0,1-.2-.2.272.272,0,0,1,.162-.275.384.384,0,0,1,.131-.026c.5,0,1.009-.01,1.514-.008.249,0,.327.09.335.345,0,.047.01.093.017.159M21.7,64.466v.007q-.971,0-1.942,0a1.661,1.661,0,0,1-.243-.018.241.241,0,0,1-.175-.336.3.3,0,0,1,.31-.171q1.649,0,3.3-.009c.256,0,.513,0,.768-.016a.536.536,0,0,0,.488-.511.576.576,0,0,0-.478-.551,1.711,1.711,0,0,0-.243-.015c-.847,0-1.694-.006-2.54,0a1.488,1.488,0,0,1-1.009-.395,2.4,2.4,0,0,0-.461-.335,3.242,3.242,0,0,0-2.486-.21c-.289.089-.56.236-.843.347a.137.137,0,0,0-.1.151c0,.831,0,1.661,0,2.492,0,.119.055.148.153.149a2.016,2.016,0,0,1,.7.152c.308.115.618.228.929.336.994.345,1.99.684,2.983,1.033a1.354,1.354,0,0,0,1.2-.127c.639-.382,1.28-.76,1.918-1.144.45-.27.894-.55,1.343-.82.641-.386,1.286-.766,1.928-1.151a.485.485,0,0,0,.247-.472.544.544,0,0,0-.348-.5.669.669,0,0,0-.595.071c-.551.3-1.1.594-1.658.883a.217.217,0,0,0-.135.189,1.111,1.111,0,0,1-1.138.977c-.623-.01-1.246,0-1.869,0" transform="translate(-13.895 -52.518)" fill="#404040" stroke="#404040" stroke-width="1"/>
      <path id="Path_176638" data-name="Path 176638" d="M30.514,66.619c.623,0,1.246-.008,1.869,0a1.111,1.111,0,0,0,1.138-.977.217.217,0,0,1,.135-.189c.556-.289,1.107-.585,1.658-.883a.669.669,0,0,1,.595-.071.544.544,0,0,1,.348.5.485.485,0,0,1-.247.472c-.642.385-1.286.766-1.928,1.151-.45.271-.894.55-1.343.82-.638.383-1.279.761-1.918,1.144a1.354,1.354,0,0,1-1.2.127c-.992-.349-1.989-.688-2.983-1.033-.311-.108-.62-.221-.929-.336a2.016,2.016,0,0,0-.7-.152c-.1,0-.154-.029-.153-.149,0-.831,0-1.661,0-2.492a.137.137,0,0,1,.1-.151c.283-.111.554-.258.843-.347a3.242,3.242,0,0,1,2.486.21,2.4,2.4,0,0,1,.461.335A1.488,1.488,0,0,0,29.755,65c.847-.006,1.694,0,2.54,0a1.711,1.711,0,0,1,.243.015.576.576,0,0,1,.478.551.536.536,0,0,1-.488.511c-.255.021-.512.015-.768.016q-1.649.006-3.3.009a.3.3,0,0,0-.31.171.241.241,0,0,0,.175.336,1.662,1.662,0,0,0,.243.018q.971,0,1.942,0Z" transform="translate(-22.71 -54.671)" fill="#fff"/>
      <g id="Group_75251" data-name="Group 75251" transform="translate(6.446)">
        <path id="Path_176664" data-name="Path 176664" d="M52.113,61.025c.05-.23.089-.42.132-.61.09-.393.187-.785.271-1.18a.318.318,0,0,0-.046-.215,3.811,3.811,0,0,1,1.694-5.606,3.773,3.773,0,0,1,4.99,2.027,3.81,3.81,0,0,1-5.073,4.946.411.411,0,0,0-.278,0c-.5.187-1,.389-1.5.584-.047.018-.1.029-.188.056m.607-.716a.889.889,0,0,0,.135-.024c.328-.126.653-.261.984-.378a.371.371,0,0,1,.258.01,3.388,3.388,0,1,0-1.23-1.1.487.487,0,0,1,.089.47c-.01.029-.018.06-.025.09l-.211.932" transform="translate(-51.836 -53.102)" fill="#e54513" stroke="#e54513" stroke-linecap="round" stroke-width="1"/>
        <path id="Path_176665" data-name="Path 176665" d="M59.289,66.921c.075-.331.143-.631.211-.932.007-.03.015-.06.024-.09a.487.487,0,0,0-.089-.47,3.323,3.323,0,1,1,1.23,1.1.37.37,0,0,0-.258-.01c-.331.117-.656.252-.984.378a.893.893,0,0,1-.135.024m2.917-2.713a1.827,1.827,0,0,1,.186,0c.141.014.209-.028.2-.187a.563.563,0,0,1,.186-.411,3.209,3.209,0,0,0,.448-.549.945.945,0,0,0-.3-1.3,1.33,1.33,0,0,0-1.8.381c-.06.077-.021.121.042.163.134.088.271.172.4.265.076.055.119.037.182-.025a1.173,1.173,0,0,1,.284-.21.427.427,0,0,1,.513.084.363.363,0,0,1-.025.5c-.089.119-.2.22-.3.331a.863.863,0,0,0-.384.911l.357.045h.016m0,1.282a.439.439,0,0,0-.006-.877.439.439,0,1,0,.006.877" transform="translate(-58.405 -59.713)" fill="#fff"/>
        <path id="Path_176666" data-name="Path 176666" d="M96.213,85.424H96.2l-.357-.045a.864.864,0,0,1,.384-.911c.1-.111.214-.212.3-.331a.363.363,0,0,0,.025-.5.427.427,0,0,0-.513-.084,1.174,1.174,0,0,0-.284.21c-.063.062-.106.08-.182.025-.13-.094-.266-.178-.4-.265-.064-.042-.1-.086-.042-.163a1.33,1.33,0,0,1,1.8-.381.945.945,0,0,1,.3,1.3,3.219,3.219,0,0,1-.448.549.563.563,0,0,0-.186.411c.008.159-.06.2-.2.187a1.782,1.782,0,0,0-.186,0" transform="translate(-92.412 -80.929)" fill="#e54513"/>
        <path id="Path_176667" data-name="Path 176667" d="M106.357,132.816a.439.439,0,1,1-.006-.877.439.439,0,0,1,.006.877" transform="translate(-102.551 -127.04)" fill="#e54513"/>
      </g>
    </g>
  </g>
</svg>
