<svg xmlns="http://www.w3.org/2000/svg" width="24" height="24" viewBox="0 0 24 24">
  <g id="Group_77071" data-name="Group 77071" transform="translate(-1341 -303)">
    <g id="Rectangle_Copy_3" data-name="Rectangle Copy 3" transform="translate(1341 303)" fill="#eee" stroke="#eee" stroke-miterlimit="10" stroke-width="1">
      <rect width="24" height="24" rx="6" stroke="none"/>
      <rect x="0.5" y="0.5" width="23" height="23" rx="5.5" fill="none"/>
    </g>
    <g id="schedule_send_black_24dp" transform="translate(1343.906 305.906)">
      <path id="Path_166319" data-name="Path 166319" d="M0,0H18.188V18.188H0Z" fill="none"/>
      <path id="Path_166320" data-name="Path 166320" d="M12.988,10.2H11.852V13.23l2.273,1.516.568-.932-1.705-1.152Zm-.379-2.652L2,3V8.3L8.82,9.82,2,11.336v5.3l5.509-2.357a5.3,5.3,0,1,0,5.1-6.737Zm0,9.094A3.791,3.791,0,0,1,8.82,12.874v-.053a3.789,3.789,0,1,1,3.789,3.819Z" transform="translate(-0.484 -0.727)" fill="#de5a38"/>
    </g>
  </g>
</svg>
