<svg xmlns="http://www.w3.org/2000/svg" width="24.1" height="14.846" viewBox="0 0 24.1 14.846">
  <g id="reminder_1_" data-name="reminder (1)" opacity="0.604">
    <path id="Path_178433" data-name="Path 178433" d="M370.1,215.448l3.682,3.63V214.9a5.737,5.737,0,0,1-2.641.646A6.7,6.7,0,0,1,370.1,215.448Zm0,0" transform="translate(-352.263 -204.541)"/>
    <path id="Path_178434" data-name="Path 178434" d="M21.472,161.014l-1.894,1.335a1.939,1.939,0,0,1-2.241,0L15.3,160.9l-7.2,7.09H28.779l-4.319-4.256a5.8,5.8,0,0,1-2.988-2.718Zm0,0" transform="translate(-7.711 -153.143)"/>
    <path id="Path_178435" data-name="Path 178435" d="M0,49.1V61.2l7.139-7.032Zm0,0" transform="translate(0 -46.735)"/>
    <path id="Path_178436" data-name="Path 178436" d="M24.884,51.219l1.976-1.393a5.787,5.787,0,0,1,.482-5.225L14,44.635l9.264,6.579a1.406,1.406,0,0,0,1.62,0Zm0,0" transform="translate(-13.325 -42.451)"/>
    <path id="Path_178437" data-name="Path 178437" d="M288.618,0a5.207,5.207,0,0,0-3.726,1.571l-.029.029c-.077.077-.149.159-.217.241a.213.213,0,0,0-.029.034,2.98,2.98,0,0,0-.188.241.211.211,0,0,0-.024.034,5.226,5.226,0,0,0-.68,4.907c.014.043.034.092.053.135s.034.082.053.125c.039.082.077.169.116.251.053.111.116.222.178.328a5.253,5.253,0,0,0,1.923,1.894,5.191,5.191,0,0,0,5.211-.043c.091-.053.183-.111.27-.169s.183-.13.27-.2A5.234,5.234,0,0,0,288.618,0Zm3.042,7.727a.309.309,0,0,1-.125.111.261.261,0,0,1-.106.019H289.91a1.15,1.15,0,1,1-2.294,0h-1.8a.265.265,0,0,1-.231-.13.261.261,0,0,1,0-.265l.352-.656a1.627,1.627,0,0,0,.193-.766V4.121a2.539,2.539,0,0,1,.954-1.981.219.219,0,0,1,.034-.024,2.322,2.322,0,0,1,.391-.246.454.454,0,0,1,.048-.024,2.535,2.535,0,0,1,.94-.251c.058,0,.111,0,.169,0s.106,0,.159,0a2.386,2.386,0,0,1,.945.251.12.12,0,0,1,.034.019,2.369,2.369,0,0,1,.39.255s.015.01.019.014a2.926,2.926,0,0,1,.217.2,2.538,2.538,0,0,1,.178.207c.053.072.106.145.154.222a2.58,2.58,0,0,1,.376,1.359V5.909a2.228,2.228,0,0,0,.135.752,2.14,2.14,0,0,0,.116.26l.154.289.135.251A.287.287,0,0,1,291.66,7.727Zm0,0" transform="translate(-269.738)"/>
    <path id="Path_178438" data-name="Path 178438" d="M382.8,163.593a.669.669,0,0,0,.607-.694H382.2A.659.659,0,0,0,382.8,163.593Zm0,0" transform="translate(-363.777 -155.047)"/>
    <path id="Path_178439" data-name="Path 178439" d="M347.217,47.88V46.092a2.042,2.042,0,0,0-.28-1.046,1.812,1.812,0,0,0-.154-.222,2.467,2.467,0,0,0-.183-.2,1.923,1.923,0,0,0-1.181-.516,1.386,1.386,0,0,0-.14,0c-.048,0-.1,0-.15,0a1.989,1.989,0,0,0-1.836,1.986V48.01a2.137,2.137,0,0,1-.255,1.017l-.14.26h4.714l-.077-.145A2.682,2.682,0,0,1,347.217,47.88Zm0,0" transform="translate(-326.371 -41.976)"/>
  </g>
</svg>
