<svg xmlns="http://www.w3.org/2000/svg" width="36" height="24" viewBox="0 0 36 24">
  <g id="Group_76008" data-name="Group 76008" transform="translate(-1839 -20217)">
    <g id="view" transform="translate(1839.135 20213.254)">
      <path id="Path_178440" data-name="Path 178440" d="M29.418,30.4a1.018,1.018,0,1,0,1.018,1.018A1.023,1.023,0,0,0,29.418,30.4Z" transform="translate(-11.685 -15.197)" fill="#de5a38"/>
      <path id="Path_178441" data-name="Path 178441" d="M37.2,32.745a4.737,4.737,0,0,0,.887-.723A4.737,4.737,0,0,0,37.2,31.3a2.053,2.053,0,0,1,0,1.445Z" transform="translate(-17.594 -15.802)" fill="#de5a38"/>
      <path id="Path_178442" data-name="Path 178442" d="M23.987,31.3a4.737,4.737,0,0,0-.887.723,4.737,4.737,0,0,0,.887.723,2.053,2.053,0,0,1,0-1.445Z" transform="translate(-8.125 -15.802)" fill="#de5a38"/>
      <path id="Path_178443" data-name="Path 178443" d="M23.745,13.495H22.3c-.526,0-1.084.033-1.61,0a1.943,1.943,0,0,1-1.544-1.051,2.119,2.119,0,0,1-.2-.985V7.812c-.394-.033-.788,0-1.182,0H14.449a7.758,7.758,0,0,0-2.135.066A1.866,1.866,0,0,0,11,9.586V21.871a1.788,1.788,0,0,0,1.807,1.839c1.675.033,3.35,0,5.026,0,1.708,0,3.383.033,5.091,0a1.816,1.816,0,0,0,1.807-1.872v-8.31h-.2a6.071,6.071,0,0,0-.788-.033Zm-2.234,2.4a.544.544,0,0,1,0,.69,5.22,5.22,0,0,1-3.745,2,5.16,5.16,0,0,1-3.745-2,.476.476,0,0,1,0-.69,5.22,5.22,0,0,1,3.745-2A5.282,5.282,0,0,1,21.511,15.893Zm-6.405,5.026h5.256a.493.493,0,0,1,0,.985H15.106A.493.493,0,0,1,15.106,20.918Zm0-1.642h5.256a.493.493,0,0,1,0,.985H15.106A.493.493,0,0,1,15.106,19.276Z" transform="translate(0 0)" fill="#de5a38"/>
      <path id="Path_178444" data-name="Path 178444" d="M38.3,9.8l-.1-.1v3.088a.924.924,0,0,0,.92,1.018h3.186l-2.595-2.595L38.3,9.8Z" transform="translate(-18.266 -1.296)" fill="#de5a38"/>
    </g>
    <g id="Rectangle_39185" data-name="Rectangle 39185" transform="translate(1839 20217)" fill="none" stroke="#de5a38" stroke-width="1">
      <rect width="36" height="24" rx="6" stroke="none"/>
      <rect x="0.5" y="0.5" width="35" height="23" rx="5.5" fill="none"/>
    </g>
  </g>
</svg>
