<svg xmlns="http://www.w3.org/2000/svg" width="56.745" height="36.601" viewBox="0 0 56.745 36.601">
    <path data-name="Path 47665" d="m118.01 273.985-2.888-9.531a1.866 1.866 0 0 0-1.54-1.348l-4.621-.77a4.87 4.87 0 0 1-1.059-3.177l.1-.1a2.469 2.469 0 0 0 1.155-1.733l.385-1.348a13.917 13.917 0 0 0 .385-2.792v-.481l.77-2.888a2.985 2.985 0 0 0-.385-2.214 5.772 5.772 0 0 0-5.2-2.6 5.086 5.086 0 0 0-1.252.1 4.8 4.8 0 0 0-3.755 5.969A2.245 2.245 0 0 0 99.91 253l.385.77a5.649 5.649 0 0 0 .385 2.214l.385 1.348a3.1 3.1 0 0 0 1.155 1.733l.1.1a4.871 4.871 0 0 1-1.059 3.177l-4.621.77a2 2 0 0 0-1.54 1.348l-2.888 9.435a1.94 1.94 0 0 0 1.444 2.407 59.645 59.645 0 0 0 9.531 1.348l.963-12.42-.963-1.926h3.851l-.963 1.926.866 12.516a39.513 39.513 0 0 0 9.724-1.348 1.925 1.925 0 0 0 1.348-2.407z" transform="translate(-92.141 -241.153)" style="fill:#074089"/>
    <path data-name="Path 47666" d="m430.5 259.148.1-.1a2.552 2.552 0 0 0 .578-.481l4.236-1.059s-1.54-.963-1.926-5.777-1.926-6.739-5.777-6.739c-3.947 0-5.392 1.926-5.777 6.739s-1.926 5.777-1.926 5.777l4.332 1.059.578.578a4.87 4.87 0 0 1-1.059 3.177h-.1l3.947 6.739 3.947-6.739h-.1a4.87 4.87 0 0 1-1.053-3.174z" transform="translate(-383.93 -241.144)" style="fill:#074089"/>
    <path data-name="Path 47667" d="m277.587 228-4.718-.674a4.871 4.871 0 0 1-1.059-3.177l.1-.1a2.469 2.469 0 0 0 1.155-1.733l.385-1.348a13.919 13.919 0 0 0 .385-2.792v-.476l.77-2.888a2.985 2.985 0 0 0-.385-2.214 5.772 5.772 0 0 0-5.2-2.6 5.087 5.087 0 0 0-1.252.1 4.8 4.8 0 0 0-3.755 5.969 2.245 2.245 0 0 0-.193 1.926l.385.77a5.648 5.648 0 0 0 .385 2.214l.385 1.348a3.1 3.1 0 0 0 1.155 1.733l.1.1a4.871 4.871 0 0 1-1.059 3.177l-4.621.77a2 2 0 0 0-1.54 1.348v.1l3.37.578a3.839 3.839 0 0 1 3.081 2.7l2.022 6.451.578-9.05-.963-1.926h3.851l-.963 1.926.674 8.954 2.022-6.451a3.859 3.859 0 0 1 3.081-2.7l3.37-.578v-.1a1.866 1.866 0 0 0-1.546-1.357z" transform="translate(-240.645 -209.995)" style="fill:#074089"/>
    <path data-name="Path 47668" d="m398.055 417.27-2.888-9.531a1.866 1.866 0 0 0-1.54-1.348l-2.5-.385-5.969 10.205-5.969-10.205-2.5.385a2 2 0 0 0-1.54 1.348l-2.888 9.435c-.289 1.059.481 1.829 1.444 2.407 2.792 1.829 20.123 2.022 23.01.1.963-.578 1.637-1.348 1.348-2.407z" transform="translate(-341.377 -384.438)" style="fill:#074089"/>
</svg>
